<svg xmlns="http://www.w3.org/2000/svg" xmlns:xlink="http://www.w3.org/1999/xlink" width="151" height="286" preserveAspectRatio="xMidYMid meet" viewBox="0 0 117 90" class="css-1j8o68f"><defs id="SvgjsDefs1011"/><g id="SvgjsG1012" featurekey="nRdZyp-0" transform="matrix(0.9057971014492755,0,0,0.9057971014492755,-7.246376811594204,-7.246376811594204)" fill="#ffb400"><g xmlns="http://www.w3.org/2000/svg"><path d="M51,68.9c4.5-0.2,8.6-2,11.7-4.8L51,52.4V68.9z"/><path d="M35.9,37.3c-2.8,3.1-4.6,7.2-4.8,11.7h16.5L35.9,37.3z"/><path d="M49,31.1c-4.5,0.2-8.6,2-11.7,4.8L49,47.6V31.1z"/><path d="M62.7,35.9c-3.1-2.8-7.2-4.6-11.7-4.8v16.5L62.7,35.9z"/><path d="M37.3,64.1c3.1,2.8,7.2,4.6,11.7,4.8V52.4L37.3,64.1z"/><path d="M68.9,49c-0.2-4.5-2-8.6-4.8-11.7L52.4,49H68.9z"/><path d="M64.1,62.7c2.8-3.1,4.6-7.2,4.8-11.7H52.4L64.1,62.7z"/><path d="M31.1,51c0.2,4.5,2,8.6,4.8,11.7L47.6,51H31.1z"/><path d="M49,68.9v16h-3.1l3.1,5.4l1,1.7l1-1.7l3.1-5.4H51v-16c-0.3,0-0.7,0.1-1,0.1S49.3,69,49,68.9z"/><path d="M51,31.1v-16h3.1L51,9.7L50,8l-1,1.7l-3.1,5.4H49v16c0.3,0,0.7-0.1,1-0.1S50.7,31,51,31.1z"/><path d="M26,24.6l2.2-2.2l-6-1.6l-1.9-0.5l0.5,1.9l1.6,6l2.2-2.2l11.3,11.3c0.4-0.5,0.9-1,1.4-1.4L26,24.6z"/><path d="M74,75.4l-2.2,2.2l6,1.6l1.9,0.5l-0.5-1.9l-1.6-6L75.4,74L64.1,62.7c-0.4,0.5-0.9,1-1.4,1.4L74,75.4z"/><path d="M31.1,49h-16v-3.1L9.7,49L8,50l1.7,1l5.4,3.1V51h16c0-0.3-0.1-0.7-0.1-1S31,49.3,31.1,49z"/><path d="M90.3,49l-5.4-3.1V49h-16c0,0.3,0.1,0.7,0.1,1s0,0.7-0.1,1h16v3.1l5.4-3.1l1.7-1L90.3,49z"/><path d="M75.4,26l2.2,2.2l1.6-6l0.5-1.9l-1.9,0.5l-6,1.6l2.2,2.2L62.7,35.9c0.5,0.4,1,0.9,1.4,1.4L75.4,26z"/><path d="M24.6,74l-2.2-2.2l-1.6,6l-0.5,1.9v0h0l1.9-0.5l6-1.6L26,75.4l11.3-11.3c-0.5-0.4-1-0.9-1.4-1.4L24.6,74z"/><polygon points="51,47.6 50,48.6 49,47.6 49,49 47.6,49 48.6,50 47.6,51 49,51 49,52.4 50,51.4 51,52.4 51,51 52.4,51 51.4,50    52.4,49 51,49  "/></g></g></svg>