<svg xmlns="http://www.w3.org/2000/svg" viewBox="0 0 48 48">
    <defs>
        <style>.cls-1{fill:#f6ccaf}.cls-2{fill:#edb996}.cls-4{fill:#7c7d7d}</style>
    </defs>
    <g id="Cow_udder" data-name="Cow udder">
        <path class="cls-1"
            d="M21 15.62V17a2 2 0 0 1-4 0c0-2.78-.12-2.16.47-2.93A11.65 11.65 0 0 0 21 15.62zM31 17a2 2 0 0 1-4 0v-1.38a11.65 11.65 0 0 0 3.53-1.55c.63.81.47.15.47 2.93z" />
        <path class="cls-1"
            d="M36.22 15.58a2 2 0 0 1-3.58 1.23l-2.11-2.74a12 12 0 0 1-13.06 0l-2.11 2.74a2 2 0 0 1-3.58-1.23c0-.92.31-1.1 2.73-4.22A12 12 0 0 1 12 4C17.22.1 30.6 0 36 4a12 12 0 0 1-2.51 7.36c2.51 3.3 2.73 3.33 2.73 4.22z" />
        <path class="cls-2"
            d="M17.47 14.07A11.65 11.65 0 0 0 21 15.62v1a11.65 11.65 0 0 1-3.53-1.55l-.47.61c0-1.2-.12-.84.47-1.61zM31 15.68l-.47-.61A11.65 11.65 0 0 1 27 16.62v-1a11.65 11.65 0 0 0 3.53-1.55c.59.77.47.41.47 1.61z" />
        <path
            d="M36.22 15.58a2 2 0 0 1-3.58 1.23l-2.11-2.74a11.73 11.73 0 0 1-5 1.83A12 12 0 0 1 15.1 2.46C22.49-.24 32.15 1.11 36 4a12 12 0 0 1-2.51 7.36c2.36 3.07 2.73 3.29 2.73 4.22z"
            style="fill:#ffdec7" />
        <path class="cls-4" d="M12 27h24v4H12z" />
        <path d="M36 27v2H17a2 2 0 0 1-2-2z" style="fill:#919191" />
        <path style="fill:#dad7e5" d="m34 31-2 16H16l-2-16h20z" />
        <path d="m33.75 33-1.5 12h-3.42a11.13 11.13 0 0 1-11-9.75 2 2 0 0 1 2-2.25z"
            style="fill:#edebf2" />
        <path class="cls-4"
            d="M34 41c-.63 0 .22.72-11.74-12.32a1 1 0 0 1 1.48-1.36l11 12A1 1 0 0 1 34 41z" />
    </g>
</svg>