<svg xmlns="http://www.w3.org/2000/svg" xml:space="preserve" width="655.359" height="655.359"
    style="shape-rendering:geometricPrecision;text-rendering:geometricPrecision;image-rendering:optimizeQuality;fill-rule:evenodd;clip-rule:evenodd"
    viewBox="0 0 6.827 6.827"><defs><clipPath id="id0"><path d="M3.413 0a3.413 3.413 0 1 1 0 6.827 3.413 3.413 0 0 1 0-6.827z"/></clipPath><style>.fil9{fill:#703112}.fil10{fill:#b87654}.fil5{fill:#d50000}.fil1{fill:#e9cd78}.fil8{fill:#fffffe}</style></defs><g id="Layer_x0020_1"><path d="M3.413 0a3.413 3.413 0 1 1 0 6.827 3.413 3.413 0 0 1 0-6.827z" style="fill:#ffe082"/><g style="clip-path:url(#id0)"><g id="_637656232"><path id="_6376621601" class="fil1" d="M4.524 2.886 8.31 6.673v.002l.002.004.002.005.003.007.002.009.004.01.004.01.004.013.004.014.005.014.005.016.005.017.006.017.005.018.006.019.006.02.005.019.006.02.006.02.005.022.006.02.005.022.005.02.005.022.004.021.004.02.004.021.003.02.003.02.003.019.001.018.002.018-3.787-3.786v-.018l-.003-.018-.002-.02-.003-.019-.003-.02-.004-.02-.004-.021-.005-.021-.004-.021-.005-.022-.006-.02-.005-.022-.006-.02-.005-.021-.006-.02-.006-.02-.005-.02-.006-.018-.005-.018-.006-.018-.005-.016-.005-.016-.005-.014-.004-.014-.005-.012-.003-.012-.004-.01-.003-.008-.002-.007-.002-.006-.002-.004z"/><path id="_637662064" class="fil1" d="M2.772 2.544 6.558 6.33l.015.016.014.016.014.016.013.017.012.018.012.018.011.018.011.02.01.019L2.884 2.7l-.01-.02-.01-.018-.012-.019-.012-.018-.013-.017-.013-.017-.013-.017-.015-.016z"/><path id="_637665424" class="fil1" d="m2.362 3.2 3.786 3.787-.002-.002-3.787-3.786z"/><path id="_637664944" class="fil1" d="M2.481 3.683 6.267 7.47l-.003-.003-.003-.003-3.787-3.786.004.003z"/><path id="_637665112" class="fil1" d="M3.685 4.554 7.47 8.341l-.002.008-.002.009-.002.01-.001.01-.002.01-.002.01-.002.012-.002.011-.002.012-.001.012-.002.012-.001.013-.002.013v.012l-.002.013v.013l-.001.013v.063l.002.012.001.012.002.011.002.011.003.01.003.01.003.01.004.01.004.008.005.008-3.786-3.786-.005-.008-.004-.009-.004-.009-.004-.01-.003-.01-.002-.01-.002-.011-.002-.012-.001-.011-.002-.012v-.025l-.001-.013v-.025l.001-.013v-.013l.002-.013.001-.013.001-.012.002-.013.001-.012.002-.012.002-.012.002-.012.001-.01.002-.012.002-.01.002-.01.002-.01.002-.008z"/><path id="_637666096" class="fil1" d="m4.096 5.059 3.786 3.786v.005l-.002.002-.003.001h-.004l-.004-.001-.006-.002-.006-.003-.007-.003-.007-.004-.008-.003-.009-.003-.009-.002-.01-.002h-.01l-.01.001-.01.003-3.786-3.787.01-.002.01-.001h.01l.01.002.009.002.009.003.008.003.007.003.007.004.006.002.006.003h.004l.004.001.002-.001.002-.003z"/><path id="_637665712" class="fil1" d="m3.99 5.047 3.787 3.787h-.024L3.967 5.046H3.989z"/><path id="_637665784" class="fil1" d="m3.967 5.047 3.786 3.786H7.693L3.907 5.046H3.96l.004.001z"/><path id="_637665736" class="fil1" d="m3.907 5.046 3.786 3.787h-.06l-.006.001h-.015l-.004.001H7.6l-.004.001L3.81 5.05h.007l.005-.001H3.83l.005-.001h.023l.007-.001h.032z"/><path id="_637666240" class="fil1" d="M3.864 5.058 7.65 8.844l.002.001v.002l.002.002.002.002.002.003.001.003.002.003-3.786-3.786-.002-.003-.002-.003-.001-.003-.002-.002-.001-.002-.002-.002z"/><path id="_637665928" class="fil1" d="m3.949 5.123 3.786 3.786.008.007.007.008.006.007.005.007.004.006.003.005.002.005-3.787-3.786-.001-.005-.003-.005-.004-.007-.005-.006-.006-.008-.007-.007z"/><path id="_637666168" class="fil1" d="M3.983 5.168 7.77 8.954v.002h-.004l-.003-.001-.004-.002-.004-.003-.005-.003-.005-.003-.006-.004-.005-.003-.006-.003-.005-.002-.005-.002h-.012L3.92 5.144l.003-.001H3.932l.005.003.005.002.005.003.006.003.005.003.006.004.004.003.005.002.004.002.003.002h.003z"/><path id="_637666744" class="fil1" d="M3.92 5.144 7.706 8.93l-.001.001h-.001l-.002.001-.002.001h-.002l-.002.001h-.002L3.908 5.149h.005l.002-.001.001-.001h.001l.002-.001z"/><path id="_637666768" class="fil1" d="m3.908 5.148 3.786 3.787.001.002.001.003v.002l.001.002v.001l.001.002v.002L3.912 5.163v-.004l-.001-.002v-.002l-.001-.002-.001-.002z"/><path id="_637666312" class="fil1" d="m3.3 4.631 3.786 3.787h-.003L3.296 4.63z"/><path id="_637666888" class="fil1" d="m3.296 4.631 3.787 3.787-.036-.002-.036-.005-.037-.007-.037-.01-.038-.014-.037-.016-.038-.018-.037-.02-.037-.023-.036-.025-.036-.027-.036-.028-.034-.03L2.82 4.406l.035.03.035.029.036.027.037.025.037.022.037.02.038.02.037.015.037.013.038.01.036.008.037.005z"/><path id="_637666816" class="fil1" d="m3.777 5.15 3.786 3.787H7.5L3.714 5.15H3.773z"/><path id="_637666864" class="fil1" d="M3.714 5.15 7.5 8.936h-.042l-.008.001h-.025l-.005.001H7.411l-.005.001H7.4L3.612 5.155h.004l.004-.001H3.629l.005-.001h.017l.006-.001h.048z"/><path id="_637666576" class="fil1" d="m3.75 5.222 3.786 3.786.008.008.008.008.008.008.006.007.005.007.005.007.003.006.001.005-3.786-3.787-.001-.005-.003-.005-.005-.007-.005-.007-.007-.008-.007-.007-.008-.008z"/><path id="_637667176" class="fil1" d="M3.794 5.277 7.58 9.064v.002h-.003l-.004-.002-.004-.002-.004-.003-.005-.003-.006-.003-.005-.004-.006-.003-.006-.003-.006-.003-.005-.001-.005-.001h-.007L3.727 5.254l.004-.002h.004l.005.001.005.002.006.003.005.003.006.003.006.003.005.004.006.003.004.003.004.002.003.001.003.001h.001z"/><path id="_637667248" class="fil1" d="m3.727 5.253 3.787 3.786-.003.001-.003.002h-.004l-.004.002h-.005l-.006.001h-.016L3.687 5.26h.022l.005-.002h.004l.004-.002.003-.001z"/><path id="_637667104" class="fil1" d="m3.261 5.02 3.786 3.786-.004.001-.004.002-.004.001-.004.002-.005.001-.004.002-.004.002-.004.001-.004.002-.004.002-.004.002-.004.002-.003.001-.004.002-.004.002-.003.002-3.787-3.787.004-.001.004-.002.003-.002.004-.002.004-.002.004-.001.004-.002.004-.002.004-.002.004-.001.004-.002.004-.002.005-.001.004-.002h.004z"/><path id="_637667680" class="fil1" d="m3.687 5.26 3.786 3.785h-.03l-.01-.002h-.01l-.01-.002L7.4 9.04l-.012-.002-.013-.001-.013-.003-.014-.002-.014-.003-.014-.003-.015-.003-.014-.004-.015-.004-.015-.004-.015-.005-.014-.005-.015-.005-.014-.006-.014-.006-.014-.007-.014-.007-.013-.008-.012-.008-.012-.008-.011-.01-.011-.009-3.786-3.786.01.01.012.009.012.008.012.008.013.008.014.007.013.006.014.007.015.006.014.005.015.005.015.005.015.004.014.004.015.004.014.003.015.003.014.003.013.002.013.002.013.002.013.002.011.001.011.001.01.001.01.001h.017l.007.001z"/><path id="_637667704" class="fil1" d="m3.197 5.046 3.787 3.787-.004.001-.003.002h-.003l-.003.002-.003.002h-.002l-.003.002-.003.001-3.786-3.786.003-.001.002-.001.003-.002.003-.001.003-.001.003-.002.003-.001z"/><path id="_637667344" class="fil1" d="M3.174 5.057 6.96 8.843H6.951l-.003-.001-.003-.001-.003-.001-.003-.001h-.003L3.149 5.051h.003l.003.001.003.001.004.002h.003l.003.001h.003z"/><path id="_637667560" class="fil1" d="m3.15 5.052 3.786 3.786-.004.001-.003.002-.004.004-.003.004-.003.005-.002.006-.003.006-.002.006-.003.005-.002.005-.002.005-.002.004-.001.002-.002.001H6.9L3.113 5.106h.003l.001-.003.002-.003.002-.005.002-.005.002-.006.003-.005.002-.006.003-.006.003-.005.003-.004.003-.004.004-.002z"/><path id="_637668544" class="fil1" d="m3.912 5.163 3.786 3.786v.005l-.002.003-.003.001H7.69l-.004-.002-.006-.002-.006-.003-.008-.003-.008-.004-.008-.003-.01-.003-.009-.003-.01-.001H7.6l-.012.003-3.786-3.786.011-.003H3.834l.01.001.01.003.009.003.008.003.008.003.007.004.007.003.005.002.005.002h.004l.003-.001.001-.003z"/><path id="_637668040" class="fil1" d="m3.802 5.151 3.786 3.786h-.025L3.777 5.15H3.8z"/><path id="_637668112" class="fil1" d="m4.051 4.96 3.786 3.786.003.004.003.005.004.006.004.007.003.008.004.008.004.009.004.008.004.009.003.008.003.007.002.007.002.006.001.004v.003L4.097 5.06v-.003l-.002-.005-.002-.005-.002-.007-.003-.008-.003-.008-.004-.008-.004-.009-.004-.008-.004-.009-.004-.007-.003-.007-.004-.006-.003-.005z"/><path id="_637667824" class="fil1" d="m2.353 3.176 3.786 3.787-.012-.01-.012-.009-.011-.01-.011-.01-3.786-3.786.01.01.012.01.012.01z"/><path id="_637667968" class="fil1" d="m4.128 4.196 3.786 3.786-.01.009L7.891 8l-.011.01-.012.01-.012.01-.012.01-.012.011-.013.011-.013.012-.013.012-.014.011-.014.013-.013.012-.015.012-.014.012-.014.013-.015.012-.014.012-.015.013-.015.012-.015.012-.015.012-.015.012-.015.012-.015.012-.015.011-.015.011-.015.01-.015.011-.015.01-.015.01-.015.01-3.786-3.787.014-.009.015-.01.015-.01.015-.01.016-.011.015-.011.015-.012.015-.011.015-.012.015-.012.015-.012.015-.012.015-.012.014-.013.015-.012.015-.013.014-.012.014-.012.014-.013.014-.012.014-.012.013-.012.014-.011.013-.012.012-.011.013-.01.012-.012.012-.01.012-.01.01-.01.012-.009z"/><path id="_637668016" class="fil1" d="M2.884 2.701 6.67 6.488l.01.019.01.018.011.018.012.017.012.016.013.016.013.015.014.014-3.787-3.787-.013-.014-.014-.014-.012-.016-.013-.016-.011-.017-.011-.018-.01-.018z"/><path id="_637668328" class="fil1" d="M4.653 3.404 8.44 7.19v.055l-.004.028-.004.027-.006.028-.008.027-.01.028-.01.027-.012.027-.013.027-.014.027-.016.027-.016.027-.018.026-.018.026-.02.026-.019.026-.02.025-.022.025-.021.025-.022.024-.023.024-.023.023-.023.023-.023.023-.023.021-.024.022-.023.02-.023.021-.023.02-.023.019-.022.018-3.786-3.786.022-.019.023-.019.023-.02.023-.02.023-.02.023-.022.024-.022.023-.022.023-.023.023-.023.022-.024.022-.024.022-.025.021-.025.02-.025.02-.026.02-.026.018-.026.017-.026.017-.027.015-.027.015-.027.013-.027.012-.027.01-.028.01-.027.007-.028.006-.027.005-.028.003-.027.001-.028z"/><path id="_637669096" class="fil1" d="m3.98 1.847 3.786 3.786-3.787-3.786z"/><path id="_637669216" class="fil1" d="m3.98 1.847 3.786 3.786-3.787-3.786z"/><path id="_637668712" class="fil1" d="m3.98 1.847 3.785 3.786-.008-.009-.008-.008-.008-.009-.007-.007-3.786-3.787.007.008.007.008.008.009z"/><path id="_637668760" class="fil1" d="m4.147 1.573 3.786 3.786.003.004.003.005.004.006.003.005.003.006.003.007.003.007.004.007.003.008-3.786-3.786-.003-.008-.004-.007-.003-.007-.003-.007-.004-.006-.003-.006-.003-.005-.003-.005z"/><path id="_637669144" class="fil1" d="m4.176 1.628 3.786 3.786.001.002.001.002v.002l.002.001v.002l.002.002v.002l.002.002-3.787-3.786v-.002L4.18 1.64v-.002l-.001-.002-.001-.002-.001-.002-.001-.001z"/><path id="_637669072" class="fil1" d="m4.275 1.56 3.786 3.786.004.005.002.006.003.006.001.007.002.007v.007l.002.008v.024l.001.008L4.29 1.638v-.016l-.001-.008v-.008l-.001-.008-.001-.007-.002-.008-.002-.006-.002-.006-.003-.006z"/><path id="_637669768" class="fil1" d="m4.29 1.638 3.786 3.786v.011L4.29 1.65z"/><path id="_637670080" class="fil1" d="M4.39 1.615 8.176 5.4l.002.002.001.003.002.002v.003L4.396 1.625v-.003l-.002-.002-.001-.003z"/><path id="_637670008" class="fil1" d="M4.395 1.625 8.182 5.41v.006l.001.002v.008l-.001.004-.001.006-.002.006-.002.007-.003.009-.004.009-.005.01-.006.012-.006.014-.008.014-3.786-3.786.007-.015.007-.013.006-.012.005-.01.003-.01.003-.008.003-.007.002-.007v-.005l.001-.005v-.014z"/><path id="_637670536" class="fil1" d="m4.359 1.732 3.786 3.786v.001h.001v.001L4.36 1.734v-.001h-.001z"/><path id="_637672528" class="fil1" d="M4.36 1.734 8.147 5.52l.003.005.004.006.004.005.005.007.004.006.005.007.004.008.004.007.005.008.004.007.003.008.004.008.003.007.002.008.002.008.002.007-3.786-3.786-.002-.008-.002-.007-.002-.008-.003-.008-.004-.007-.004-.008-.004-.008-.004-.007-.004-.008-.005-.007-.004-.007-.005-.007-.004-.006-.004-.006-.004-.005z"/><path id="_637672432" class="fil1" d="m4.419 1.846 3.786 3.786v.008L4.42 1.854v-.007z"/><path id="_637672696" class="fil1" d="M4.42 1.854 8.205 5.64l.001.003-3.786-3.786z"/><path id="_637672768" class="fil1" d="m4.612 1.986 3.786 3.787.003.003.003.004.003.004.003.004.003.003.002.004L4.63 2.01l-.003-.004-.002-.004-.003-.003-.003-.004-.003-.004z"/><path id="_637649464" class="fil1" d="m4.629 2.009 3.786 3.786-.002.001h-.004l-.003.002H8.397l-.005.001h-.011l-.006.001h-.049l-.007-.001H8.31l-.007-.001h-.007l-.007-.001h-.007l-.007-.001h-.007l-.006-.002H8.25l-.006-.001H8.24l-.005-.001-.004-.001h-.004L4.441 2.003h.004l.004.001h.005l.005.001.005.001h.006l.006.001h.007l.006.001.007.001h.007l.008.001h.007l.007.001h.015l.007.001H4.615l.005-.002h.003l.003-.001z"/><path id="_637650088" class="fil1" d="M4.441 2.004 8.227 5.79v.002h.001L4.442 2.008v-.002z"/><path id="_637650112" class="fil1" d="m4.442 2.007 3.786 3.786v.002L4.442 2.009v-.002z"/><path id="_637649752" class="fil1" d="m4.442 2.009 3.786 3.786.001.004.001.005v.004l.002.005v.005l.001.005v.005l.001.005v.011l.001.005v.033l-.001.006-.001.005-.001.005-.001.006-.002.005-.001.006-.002.005-.002.005-.002.005-.002.005-.002.005-.003.005-.003.004-.003.005-.004.004L4.42 2.172l.003-.004.004-.005.003-.004.002-.005.003-.005.002-.005.002-.005.002-.005.002-.006.001-.005.001-.005.002-.006v-.005l.001-.006v-.005l.001-.006V2.08l.001-.005v-.022l-.001-.005v-.005l-.001-.005v-.005l-.002-.005v-.005l-.001-.004-.001-.005z"/><path id="_637650184" class="fil1" d="m4.419 2.172 3.786 3.786-.005.006-.004.005-.005.004-.005.005-.005.004-.005.003-.004.003-.005.003-.005.003-.005.002-.004.002L8.148 6h-.005l-.005.002H8.13L4.343 2.216H4.352l.005-.001.005-.002.004-.001.005-.002.005-.002.005-.003.004-.003.005-.003.005-.004.005-.004.004-.004.005-.005.005-.005z"/><path id="_637650784" class="fil1" d="m4.343 2.216 3.786 3.786H8.118L8.115 6h-.002L8.111 6 4.325 2.213l.002.001h.002l.002.001h.005l.002.001h.002z"/><path id="_637650448" class="fil1" d="M4.325 2.213 8.11 6v.001L4.325 2.215v-.001z"/><path id="_637650328" class="fil1" d="M4.325 2.215 8.11 6.001v.003L4.325 2.219v-.002z"/><path id="_637650712" class="fil1" d="m4.325 2.218 3.786 3.787.002.022.002.024.004.024.004.025.004.025.006.026.005.025.007.026.006.026.007.026.008.026.007.025.008.025.008.025.008.024.008.024.008.023.008.022.008.021.008.02.007.02.007.018.006.017.007.015.005.014.005.013.005.01.004.01.003.007.002.006.002.004v.001L4.505 2.838v-.002l-.002-.003-.002-.006-.003-.007-.004-.01-.005-.01-.005-.013-.006-.014-.006-.015-.006-.017-.007-.018-.008-.02-.007-.02-.008-.021-.008-.022-.008-.023-.008-.024-.008-.024-.008-.025-.008-.025-.008-.025-.007-.026-.007-.026-.007-.026-.006-.026-.006-.026-.005-.025-.005-.025-.004-.025-.003-.024-.002-.024z"/><path id="_637651504" class="fil1" d="m4.504 2.838 3.787 3.786.019.049-3.786-3.787z"/><path id="_637655800" class="fil1" d="M4.524 2.886c.005.014.119.332.13.518.017.292-.29.6-.526.792-.112.09-.285.26-.443.358-.019.085-.051.277.003.359.02.019.072.041.206.041a1.995 1.995 0 0 0 .125-.004c.012 0 .022.003.03.008.01.006.047.089.047.1 0 .03-.05-.029-.105-.01l-.024-.001h-.06c-.05 0-.079.001-.097.003h.021c.013 0 .024.002.032.007a.06.06 0 0 1 .012.017c.036.008.104.07.108.094.003.013-.047-.034-.063-.024a.035.035 0 0 1-.012.004.06.06 0 0 1 .004.015c0 .03-.051-.031-.11-.012h-.088c-.052 0-.083 0-.102.003.02.01.046.02.068.025.037.007.11.074.114.098.003.014-.05-.035-.067-.024-.006.004-.016.006-.04.006-.059 0-.296-.023-.39-.138a.154.154 0 0 1-.036-.101.413.413 0 0 0-.064.026l-.023.01c-.007.004-.017-.004-.025-.004-.02 0-.031.071-.038.053-.006-.022.007-.094.028-.11.004-.002.018.003.026-.002.043-.03.133-.106.164-.127l-.03-.233v-.002h-.003c-.377 0-.878-.55-.815-.948a.064.064 0 0 1-.021-.025.024.024 0 0 1 .006-.024c-.07-.11-.154-.316-.104-.433a.024.024 0 0 1-.009-.025c-.135-.095-.179-.256-.18-.411-.002-.157.01-.404.217-.404.159 0 .393.13.494.34.1.21.32.285.478.285a.29.29 0 0 0 .105-.016.302.302 0 0 0 .122-.108c.025-.032.048-.062.08-.074.008-.32.082-.719.31-.94-.096-.101-.086-.114-.076-.128.004-.005.012-.012.026-.012.014 0 .032.006.061.015l.02.006L4 1.698c-.014-.052-.02-.074-.003-.087a.026.026 0 0 1 .016-.005c.015 0 .028.01.066.042l.008.007c-.004-.046-.007-.082.019-.094a.029.029 0 0 1 .012-.003c.025 0 .038.028.057.07l.007.015.01-.023c.02-.047.032-.073.056-.073.038 0 .04.048.04.09l.001.012.013-.01c.03-.022.048-.034.065-.034a.028.028 0 0 1 .028.02c.002.007.007.025-.037.107l.001.002a.303.303 0 0 1 .06.12c.004.012.053.037.077.049.05.025.107.066.132.106a.718.718 0 0 1-.188-.005v.003l.001.002c.01.045.015.117-.023.163-.026.03-.051.044-.076.044-.007 0-.013 0-.018-.003a.229.229 0 0 0 0 .005c.013.241.177.616.18.62l.019.048z"/></g></g><path d="M3.413 0a3.413 3.413 0 1 1 0 6.827 3.413 3.413 0 0 1 0-6.827z" style="fill:none"/><path d="M3.688 4.913c-.055-.082-.021-.277-.003-.36l-.173.001.028.222c-.03.02-.115.092-.156.121-.008.005-.021 0-.025.002-.02.015-.033.084-.026.104.006.018.017-.05.036-.05.007 0 .017.008.024.005l.022-.01a.394.394 0 0 1 .06-.026c0 .035.012.067.035.096.09.11.315.132.371.132.024 0 .033-.002.039-.006.016-.01.066.037.063.024-.004-.023-.073-.087-.109-.094a.258.258 0 0 1-.064-.024c.018-.002.048-.003.097-.003H3.99c.056-.018.105.041.105.012a.362.362 0 0 0-.047-.101.055.055 0 0 0-.03-.008c-.008 0-.02 0-.035.002a1.995 1.995 0 0 1-.09.002c-.134 0-.186-.022-.206-.041z" style="fill:#e9e9e8"/><path d="M3.687 5.26c-.059 0-.296-.024-.39-.14a.154.154 0 0 1-.036-.1.413.413 0 0 0-.064.026l-.023.01c-.007.004-.017-.004-.025-.004-.02 0-.031.071-.038.053-.006-.022.007-.094.028-.11.004-.002.018.003.026-.002.043-.03.133-.106.164-.127l-.03-.235h-.003c-.384 0-.896-.57-.81-.97-.076-.1-.187-.35-.117-.474-.147-.094-.195-.261-.196-.422-.002-.157.01-.404.217-.404.159 0 .393.13.494.34.1.21.32.285.478.285a.29.29 0 0 0 .105-.016.302.302 0 0 0 .122-.108c.025-.032.048-.062.08-.074.008-.32.082-.719.31-.94-.096-.101-.086-.114-.076-.128.004-.005.012-.012.026-.012.014 0 .032.006.061.015l.02.006L4 1.698c-.014-.052-.02-.074-.003-.087a.026.026 0 0 1 .016-.005c.015 0 .028.01.066.042l.008.007c-.004-.046-.007-.082.019-.094a.029.029 0 0 1 .012-.003c.025 0 .038.028.057.07l.007.015.01-.023c.02-.047.032-.073.056-.073.038 0 .04.048.04.09l.001.012.013-.01c.03-.022.048-.034.065-.034a.028.028 0 0 1 .028.02c.002.007.007.025-.037.107.02.025.059.082.06.122l.022.15c.01.045.018.12-.022.168-.026.03-.051.044-.076.044-.007 0-.013 0-.018-.003.011.241.177.62.18.625l.019.048c.005.014.119.332.13.518.017.292-.29.6-.526.792-.164.132-.46.436-.646.433-.02.086-.056.294.002.38.021.02.076.044.216.044.037 0 .07-.001.095-.003h.036c.013 0 .024.002.032.007a.38.38 0 0 1 .049.106c0 .03-.051-.031-.11-.012h-.088c-.052 0-.083 0-.102.003.02.01.046.02.068.025.037.007.11.074.114.098.003.014-.05-.035-.067-.024-.006.004-.015.006-.04.006z" style="fill:#88421e;fill-rule:nonzero"/><path class="fil5" d="M3.98 1.847a.576.576 0 0 1 .246-.13c.086-.017.122.006.134.017l-.001-.002c.044-.082.039-.1.036-.107a.028.028 0 0 0-.027-.02c-.017 0-.035.012-.065.034l-.013.01v-.011c-.001-.043-.003-.09-.041-.091-.024 0-.036.026-.056.073a1.182 1.182 0 0 1-.01.023 1.304 1.304 0 0 1-.007-.015c-.02-.042-.032-.07-.057-.07l-.012.003c-.026.012-.023.048-.02.094l-.007-.007c-.038-.032-.051-.042-.066-.042a.026.026 0 0 0-.016.005c-.017.013-.011.035.003.087l.009.031-.02-.006a.236.236 0 0 0-.06-.015c-.015 0-.023.007-.027.012-.01.014-.02.027.076.127z"/><circle cx="4.205" cy="1.9" r=".043" style="fill:#212121"/><circle cx="4.205" cy="1.9" r=".02" style="fill:#ffebee"/><path class="fil8" d="M4.629 2.009a.347.347 0 0 0-.132-.106c-.024-.012-.073-.037-.078-.049v-.008a.215.215 0 0 0-.022.069.321.321 0 0 0 .044.09.718.718 0 0 0 .188.004z"/><path class="fil5" d="M4.419 2.172c.038-.046.032-.118.023-.163-.02-.014-.049-.034-.086.005-.024.025-.073-.015-.09.052-.007.033-.047-.03-.077.029-.029.054.106.12.136.123v-.005a.058.058 0 0 0 .018.003c.025 0 .05-.015.076-.044zM4.058 1.941c-.025.064.036.018.036.055 0 .056.022.013.038.05.005.01.036.035.03.05-.027.003-.072.027-.113-.012-.042-.039-.043-.12-.007-.129.004-.002.013-.008.016-.014z"/><path class="fil9" d="M3.91 3.24a.332.332 0 0 1-.03.107c.06.015.076.036-.008.114-.095.09-.133.037-.1.124.025.068-.11.02-.092.097.014.057-.064.005-.083.09-.014.068-.077.044-.137.087-.142.104-.288.056-.446-.011-.208-.089-.158-.162-.289-.304.06.047.055.043.095.108.086.14.162.17.317.212.273.073.228-.023.37-.065.121-.037.003-.08.133-.117-.022-.07.047-.07.088-.09-.058-.114.12-.128.15-.2-.114-.017-.026-.046-.017-.156a.024.024 0 0 1 .048.004zm-.174.347z"/><path class="fil9" d="M3.714 3.267a.525.525 0 0 1-.49.326l-.105-.018h.107a.51.51 0 0 0 .442-.321.024.024 0 1 1 .046.013zM3.432 3.308a.46.46 0 0 1-.61.106l-.006-.005-.006-.006c.012.002.005 0 .016.005.205.08.432.065.567-.129a.024.024 0 1 1 .04.029zM3.152 3.246c-.172.162-.489.018-.551-.143.02.016.002 0 .02.019.115.12.354.235.494.092a.024.024 0 1 1 .037.032zM2.39 3.16c.13.074.205.106.347.149-.159-.004-.232-.04-.373-.107a.024.024 0 0 1 .025-.041zM2.506 3.644c.007.024.22.04.246.043-.058.013-.255.05-.292-.029a.024.024 0 0 1 .046-.014z"/><path class="fil10" d="M2.467 2.477c.111.023.265.26.295.336l.026.08s-.06-.114-.088-.156c-.02-.03-.173-.215-.225-.222-.011-.002-.023-.011-.025-.022-.002-.01.006-.017.017-.016zM2.34 2.507c.201.013.343.396.338.4-.048-.055-.183-.358-.321-.362a.034.034 0 0 1-.03-.018c-.004-.01.002-.02.014-.02z"/><path class="fil10" d="M2.276 2.597c.092-.057.243.125.28.19.03.054.029.056.06.165-.009-.016-.075-.145-.085-.16-.023-.035-.164-.202-.22-.163-.009.006-.023.003-.033-.006-.01-.009-.01-.02-.002-.026z"/><path class="fil10" d="M2.27 2.708c.162.04.203.064.296.217a.21.21 0 0 1 .04.115c-.019-.044-.028-.066-.058-.11-.1-.142-.124-.154-.275-.185-.012-.003-.022-.013-.023-.023 0-.01.009-.017.02-.014zM4.187 2.635c.198.39.315.697.107 1.114.15-.46.074-.67-.148-1.089a.024.024 0 1 1 .041-.025z"/><path class="fil10" d="M4.28 3.388c-.009.22-.032.438-.27.523.214-.157.222-.263.222-.523a.024.024 0 0 1 .048 0z"/><path class="fil8" d="M3.484 5.01c-.057-.087-.022-.29-.003-.379l-.181.002.03.233c-.032.02-.122.097-.165.127-.008.005-.022 0-.026.003-.02.015-.034.087-.028.109.007.018.019-.053.038-.053.008 0 .018.008.025.005l.023-.01c.02-.01.042-.02.064-.027 0 .036.012.07.037.1.093.116.33.14.389.14.024 0 .034-.003.04-.007.017-.01.07.038.067.024-.004-.024-.077-.09-.114-.098a.27.27 0 0 1-.068-.025 1.1 1.1 0 0 1 .102-.004h.063l.025.001c.059-.019.11.043.11.012a.38.38 0 0 0-.049-.106.058.058 0 0 0-.032-.008l-.036.001a2.09 2.09 0 0 1-.095.003c-.14 0-.195-.023-.216-.043z"/></g></svg>