<svg xmlns="http://www.w3.org/2000/svg" width="43.719" height="48"><path d="M42.864 13.247a9.346 9.346 0 0 1-4.848 2.153C33.325 52.388 0 43.319 0 43.319s19.234 12.526 34.334-3.405c6.594-6.958 11.417-20.622 8.53-26.667z" fill="#db5743"/><path d="M38.016 15.4a9.015 9.015 0 0 1-8.05-2.774c-1.526 1.4-2.76 3.65-3.433 7.573-.564 3.282-1.962 10.866-5.153 14.309-3.617 3.9-11.529 9.426-21.38 8.811 0 0 33.325 9.07 38.016-27.919z" fill="#f87670"/><path d="M42.121 12.061a5.2 5.2 0 0 0-2.163-1.494h.014s-2.686-2.6-.3-9.4a3.218 3.218 0 0 0-4.309-.6c.97 7.851-1.427 9.921-1.427 9.921h.022a11.45 11.45 0 0 0-2.658 1.141 7.992 7.992 0 0 0-1.337 1c3.165 3.636 9.26 3.784 12.9.623a5.671 5.671 0 0 0-.742-1.191z" fill="#79ccb8"/></svg>