<svg xmlns="http://www.w3.org/2000/svg" viewBox="0 0 512 512">
    <path
        d="M478.552 76.218c-38.45-71.136-135.404-71.79-196.977-9.697-19.997 20.161-33.474 46.652-40.112 72.6a42.873 42.873 0 0 1-39.267 32.375c-47.254 2.7-86.22 13.329-122.885 50.296C10.151 291.52 1.66 396.02 60.342 455.198c58.695 59.167 184.029 41.652 261.05-19.125 94.798-74.803 173.306-206.298 169.159-314.14-.612-15.9-4.447-31.743-12-45.715z"
        style="fill:#e2c09c" />
    <path
        d="M459.976 65.216a21.143 21.143 0 0 0-10.005 2.522 21.499 21.499 0 0 0-8.861 28.94l.292.554.128.24c.052.108.105.214.158.321a63.203 63.203 0 0 1 6.228 25.78c3.368 87.594-62.387 207.54-152.953 279.005-36.274 28.623-87.024 46.405-132.445 46.405-31.109 0-56.638-8.464-71.88-23.829q-1.922-1.938-3.702-3.971a21.333 21.333 0 0 0-32.107 28.1l.039.043.022.026.058.066.022.025.057.064.027.031.055.063.022.025.06.067.02.024.06.068.02.023.061.068.021.024.062.07.013.014.068.077.011.012.07.079.01.011.072.08.002.003.558.62.008.009.063.07.02.023.063.068.02.022.06.066.023.025.06.066.022.025.057.062.028.03.056.061.026.029.056.062.026.028.058.063.026.028.055.06.03.033.054.058.027.03.057.062.026.027.058.063.026.028.056.06.028.03.058.063.023.025.06.064.024.026.06.065.022.023.06.066.026.026.06.065.015.016.069.073.013.014c.16.17.317.338.478.507l.012.013.07.074.014.015.062.065.025.026.064.067.019.02.062.065.025.026.06.062.025.026.058.061.028.029.058.06.026.028.056.059.033.034.052.054.033.034.053.055.033.034.054.056.03.032.055.055.034.035.052.054.033.035.053.054.034.035.052.053.034.035.052.053.038.04.048.048.039.04.048.05.037.037.051.052.034.034.052.053.041.042.046.046.046.047.04.041.05.05.038.039.087.088c24.955 25.156 61.963 36.451 102.176 36.451 54.368 0 114.6-20.64 158.875-55.576 92.39-72.904 169.308-199.657 169.315-305.881q0-4.151-.157-8.26l-.004-.089-.001-.037-.002-.055-.002-.04-.002-.048-.002-.048-.002-.042-.002-.054-.002-.034-.002-.054-.001-.038-.003-.055-.001-.032-.003-.057-.001-.033-.003-.06-.001-.028-.003-.06-.001-.03-.003-.064-.001-.02-.003-.068-.001-.022-.004-.071v-.009l-.004-.079v-.01a112.232 112.232 0 0 0-2.93-20.682v-.001l-.082-.337-.003-.011-.019-.078v-.002q-.115-.468-.233-.936l-.043-.168-.001-.004-.021-.082-.001-.003-.02-.077-.003-.013-.02-.075-.002-.008-.02-.075-.003-.015-.019-.072-.002-.009-.02-.078-.002-.005q-.087-.334-.177-.668l-.002-.009-.02-.072-.003-.014-.018-.066-.006-.022-.017-.064-.006-.023-.017-.059-.007-.028-.017-.061-.006-.025-.017-.059-.007-.028-.017-.06-.007-.025-.016-.06-.008-.028-.017-.06-.006-.023-.017-.062-.007-.025-.018-.063-.003-.014-.02-.071-.005-.016-.088-.313-.003-.012-.02-.072-.004-.013-.018-.061-.007-.027-.017-.06-.008-.026-.016-.055-.009-.033-.016-.057-.008-.027-.016-.056-.01-.034-.015-.051-.01-.035-.015-.05-.01-.039-.015-.049-.01-.034-.015-.052-.011-.038-.014-.047-.012-.042-.013-.044-.014-.048-.012-.038-.012-.042-.014-.047-.013-.045-.012-.04-.052-.174-.005-.019-.02-.067-.01-.029-.017-.06-.007-.024-.02-.063-.008-.03-.017-.054-.011-.038-.014-.046-.014-.045-.013-.043-.012-.04-.015-.048-.012-.04-.014-.046-.012-.039-.015-.047-.012-.04-.015-.05-.01-.034-.017-.053-.011-.036-.016-.05-.01-.036-.015-.046-.013-.043-.019-.059-.007-.024-.022-.068-.006-.02-.027-.087-.003-.007-.024-.077-.01-.033-.018-.056-.01-.03-.017-.054-.012-.039-.015-.048-.013-.04-.014-.043-.015-.046-.013-.042-.014-.044-.013-.04-.014-.044-.015-.046-.013-.04-.014-.045-.013-.04-.016-.05-.012-.036-.016-.047-.013-.04-.015-.048-.013-.038-.015-.047-.013-.04-.016-.05-.012-.035-.022-.067-.006-.018-.058-.174-.003-.01-.025-.076-.009-.025-.02-.06-.011-.035-.017-.05-.012-.036-.016-.049-.015-.042-.014-.043-.014-.04-.015-.047-.013-.039-.017-.05-.011-.031-.019-.055-.011-.033-.019-.055-.01-.029-.02-.058-.01-.03-.019-.056-.01-.029-.019-.055-.011-.033-.02-.058-.009-.026-.023-.066-.007-.02-.06-.172-.007-.02-.023-.067-.009-.025-.02-.059-.012-.032-.019-.055-.012-.035-.016-.046-.015-.042-.017-.047-.012-.035-.018-.05-.012-.035-.02-.053-.01-.033-.018-.048-.015-.042-.015-.042-.015-.043-.015-.042-.015-.042-.017-.046-.014-.04-.015-.04-.016-.046-.016-.043-.014-.04-.021-.057-.01-.026-.022-.06-.01-.027-.015-.044-.03-.083-.016-.042-.014-.04-.017-.043-.017-.048-.013-.036-.02-.052-.011-.031-.02-.053-.012-.034-.017-.044-.015-.041-.017-.047-.013-.036-.019-.05-.012-.032-.02-.053-.012-.033-.018-.048-.014-.038-.019-.048-.012-.034-.02-.05-.01-.03-.022-.056-.01-.028-.02-.054-.013-.031-.02-.055-.006-.014-.183-.479-.028-.072-.006-.013-.027-.07-.004-.012-.027-.068-.006-.016-.026-.066-.006-.017-.026-.066-.007-.017-.026-.067-.006-.013-.027-.07-.005-.013-.027-.069-.005-.013-.028-.07-.004-.01-.03-.074v-.002q-1.536-3.867-3.406-7.594a20.784 20.784 0 0 0-.22-.425q-.073-.15-.15-.302l-.16-.311-.004-.007q-.27-.52-.547-1.037l-.002-.004-.169-.315a21.165 21.165 0 0 0-18.579-11.008z"
        style="fill:#a77554" />
    <path
        d="M106.688 469.333a21.334 21.334 0 0 1-9.563-40.416l42.667-21.334a21.336 21.336 0 1 1 19.083 38.167l-42.667 21.333a21.25 21.25 0 0 1-9.52 2.25zM213.333 448a21.335 21.335 0 0 1-.396-42.667c1.063-.062 19.51-1.406 54.855-19.083a21.336 21.336 0 1 1 19.083 38.167C241.979 446.865 217.74 448 213.333 448zM64 448h-.27a21.206 21.206 0 0 1-21.063-21.188c0-25.729 17.041-64 64-64a21.333 21.333 0 0 1 0 42.667c-17.177 0-21.084 11.74-21.334 21.584A21.465 21.465 0 0 1 64 448z"
        style="fill:#a77554" />
    <path
        d="M106.667 341.333c-30.116 0-55.201 12.924-70.633 36.392a10.667 10.667 0 0 0 17.823 11.725 57.505 57.505 0 0 1 35.046-24.73l.002-.001c.382-.094.761-.184 1.15-.272q.321-.074.645-.144l.52-.11h.002l.064-.014.392-.08.005-.001.059-.012.008-.002.057-.011.008-.001.056-.012.01-.002.06-.011.002-.001.394-.077h.003l.06-.012.008-.001.062-.012h.001c.131-.025.263-.05.395-.073l.01-.002.053-.01.016-.003.05-.009.013-.002.054-.01.01-.002.059-.01.006-.001.265-.047h.003l.06-.011.013-.003.054-.009.01-.002.056-.01.01-.001.056-.01.01-.002.059-.01h.007l.065-.011.201-.034.004-.001.062-.01.008-.002.057-.009.011-.002.058-.01h.006l.06-.01.009-.001.06-.01h.005c.111-.019.223-.037.335-.054h.007l.06-.01.009-.002.055-.008.014-.002.054-.008.012-.002.056-.009.01-.001.269-.04.006-.002.06-.009h.01l.055-.01.016-.001.052-.008.014-.002.055-.008.01-.002.062-.008.005-.001.063-.009h.005l.204-.03h.006l.058-.008.017-.003.05-.006.017-.003.05-.006.017-.003.052-.007.015-.002.055-.007.011-.002.27-.036.016-.002.051-.006.017-.002.05-.007.02-.002.047-.006.019-.003.048-.006.02-.002.052-.007.014-.002.058-.007.01-.001.135-.017.015-.002.053-.006.017-.002.05-.006.019-.003.048-.005.021-.003.045-.005.024-.003.045-.005.021-.003.054-.006.012-.001.276-.032.007-.001.062-.007h.009l.057-.007.015-.002.056-.006.01-.001.06-.007.01-.001.066-.007h.002l.208-.023h.012l.056-.006.019-.002.048-.005.021-.003.05-.005.018-.001.05-.006.019-.002.055-.005.012-.001.064-.007h.004l.21-.02.008-.001.06-.006.02-.002.046-.005.023-.002.048-.004.02-.002.051-.005.016-.001.054-.005.017-.002.062-.006h.005l.07-.006.072-.007h.002l.064-.005.023-.002.048-.005.02-.002.048-.004.02-.002.05-.004.021-.001.047-.005.023-.002.05-.004.018-.001.062-.005h.006l.143-.012h.002l.066-.006h.015l.056-.005.016-.002.052-.004.02-.001.048-.004.025-.002.047-.003.02-.002.053-.004.017-.001.06-.004.01-.001.142-.01h.004l.064-.005.02-.002.049-.003.025-.002.044-.003.024-.002.049-.003.02-.002.05-.003.02-.001.052-.004.02-.001.055-.004h.014l.14-.01h.02l.05-.004.024-.002.046-.003.028-.001.04-.003.03-.002.04-.002.03-.002.043-.002.026-.002.044-.002.027-.002.058-.003h.01l.072-.005h.009l.06-.004.023-.001.048-.003h.024l.048-.004h.023l.047-.003.023-.001.05-.003.023-.001.044-.003h.028l.043-.003.028-.001.057-.003h.011l.073-.004h.001l.069-.004h.02l.051-.003h.02l.051-.003.025-.001.045-.002.028-.002.04-.001.032-.002.043-.002h.026l.047-.003h.025l.063-.003h.006l.073-.003h.004l.07-.003h.009l.059-.003h.025l.046-.003h.027l.043-.002.03-.001.043-.002h.028l.04-.002.032-.001.045-.002h.025l.053-.002.019-.001.071-.002h.016l.054-.003h.033l.037-.002h.034l.038-.002h.034l.04-.002h.028l.046-.002h.026l.049-.002h.022l.053-.002h.02l.145-.004h.007l.064-.002h.025l.045-.001h.032l.04-.002h.03l.043-.001h.029l.046-.001.027-.001h.042l.032-.001.045-.001h.025l.061-.002h.012l.07-.001h.031l.041-.001h.034l.04-.001h.028l.046-.001h.073l.026-.001h.075l.043-.002h.103l.142-.002h.251l.04-.001H106.667a10.667 10.667 0 0 0 0-21.334z"
        style="fill:#f0dfcc" />
    <path
        d="M170.75 383.802a21.27 21.27 0 0 1-15.167-36.219C158.406 344.76 184.604 320 234.667 320a21.333 21.333 0 0 1 0 42.667c-32.396 0-48.49 14.698-49.157 15.323a21.589 21.589 0 0 1-14.76 5.812z"
        style="fill:#a77554" />
    <path
        d="M234.667 298.667c-56.639 0-88.027 27.832-93.743 33.411a10.667 10.667 0 0 0 14.9 15.268 77.192 77.192 0 0 1 12.822-9.73l.001-.001.116-.072.007-.004.056-.035.001-.001.058-.036.003-.002q.844-.522 1.738-1.05l.015-.01.05-.03.011-.005.053-.032.013-.007.051-.03.014-.008.048-.029.02-.012.045-.026.02-.011.044-.026.018-.011.048-.028.018-.01.043-.026.024-.014.042-.024.023-.014.041-.023.022-.013.048-.028.015-.009.047-.027.02-.011.049-.029.014-.008.05-.029.016-.009.05-.03.017-.009.043-.025.026-.014.042-.024.022-.013.044-.025.021-.013.047-.027.02-.01.042-.025.025-.014.044-.025.022-.013.047-.026.018-.01.048-.028.02-.012.038-.021.03-.018.04-.021.026-.016.04-.023.028-.015.043-.024.023-.014.04-.022.028-.016.052-.029.014-.008.183-.103.057-.032.032-.017.014-.008.055-.03.009-.006.059-.033.017-.01.05-.027.024-.013.046-.026.014-.008.055-.03.014-.008.054-.03.023-.013.043-.023.032-.018.038-.021.025-.014.046-.025.022-.012.047-.026.023-.012.046-.026.023-.012.048-.027.019-.01.05-.028.025-.013.042-.022.031-.018.037-.02.035-.019.037-.02.027-.015.044-.024.03-.016.039-.02.031-.018.038-.02.034-.018.039-.022.027-.015.043-.022.031-.017.038-.02.033-.018.036-.02.037-.02.036-.019.031-.017.041-.021.033-.018.037-.02.034-.017.034-.019.039-.02.035-.02.034-.017.036-.02.04-.02.025-.014.046-.024.023-.013.05-.026.02-.01.05-.027.023-.012.05-.027.018-.009.054-.028.019-.01.054-.029.011-.005.058-.031.029-.015.392-.204.016-.008.064-.033.009-.005.04-.02.036-.019.047-.024.023-.012.059-.03.014-.008.07-.035.002-.002.058-.03.02-.009.053-.028.019-.01.053-.026.022-.012.053-.027.02-.01.05-.025.028-.014.046-.024.026-.013.05-.025.026-.014.051-.026.02-.01.054-.027.024-.012.052-.026.02-.01.053-.026.025-.013.05-.025.024-.012.05-.025.029-.015.047-.024.025-.012.053-.026.022-.011.056-.028.016-.008.059-.03.02-.009.056-.028.018-.01.057-.027.02-.01.057-.029.018-.009.056-.027.025-.013.05-.024.026-.013.053-.026.02-.01.058-.028.017-.008.06-.03.02-.01.055-.026.025-.013.052-.025.028-.014.048-.023.03-.014.048-.024.028-.014.05-.024.018-.009.062-.03.004-.001q.343-.166.691-.332l.005-.002.072-.034.007-.003.065-.03.015-.008.062-.03.017-.008.065-.03.014-.007.06-.028.02-.01.059-.027.022-.01.058-.027.02-.01.065-.03.013-.006.064-.03.016-.008.066-.03.014-.007.064-.03.017-.008.065-.03.015-.006.06-.029.023-.01.06-.028.02-.009.059-.027.022-.01.06-.028.02-.009.06-.028.022-.01.06-.028.019-.008.061-.028.022-.01.059-.027.024-.01.056-.027.025-.01.06-.028.016-.007.068-.031.01-.005.073-.033.007-.003.075-.034.005-.002.159-.072h.003l.16-.073.008-.003q.65-.291 1.318-.58l.006-.002a30.8 30.8 0 0 1 .166-.071l.002-.001.162-.07.009-.004.082-.035.08-.034.007-.003.074-.032.013-.005.066-.028.024-.01.064-.027.019-.009.067-.028.02-.008.067-.029.017-.007.069-.029.017-.007.074-.03.008-.004.079-.033.006-.003.078-.033.01-.004.073-.03.018-.008.07-.029.015-.006.072-.03.015-.007.071-.029.016-.006.071-.03.016-.007.073-.03.01-.004.079-.032.006-.003.08-.032.011-.005.075-.03.015-.007.074-.03.005-.002q.828-.338 1.679-.67l.09-.035.264-.103.01-.003.082-.032.007-.003.083-.032.008-.003.084-.032.006-.003.081-.03.013-.006.081-.03.008-.003.084-.033.006-.002.086-.032.006-.003.08-.03.015-.006.08-.03.01-.004.081-.03.01-.004.083-.031.008-.003.084-.032.008-.003.086-.032.003-.001.09-.034h.001l.18-.067.01-.004.177-.066.005-.001c.06-.022.122-.046.182-.067l.001-.001c.555-.204 1.12-.407 1.69-.606h.003l.183-.065.009-.003.092-.032h.002l.09-.032.007-.003.092-.031.002-.001.09-.031.009-.003.09-.03.004-.003.09-.03.008-.003.09-.031.005-.002.089-.03.01-.004.088-.03.007-.002.088-.03.012-.004.085-.028.012-.004.084-.029.015-.005.082-.028.015-.004.083-.028.015-.005.082-.028.016-.005.081-.027.019-.007.079-.026.017-.006.084-.027.01-.003.09-.03.004-.002.093-.03.005-.002c.651-.214 1.315-.427 1.983-.634l.096-.03.007-.002.091-.028.01-.003.093-.029.008-.003.09-.027.013-.004.089-.027.013-.004.084-.026.02-.006.078-.023.027-.009.073-.022.029-.009.077-.023.023-.007.08-.024.023-.007.079-.024.024-.007.077-.023.026-.008.078-.023.025-.007.077-.024.025-.007.08-.024.022-.006.08-.024.023-.007.085-.025.013-.003.09-.027.015-.004.087-.026.018-.005.085-.025.02-.005.087-.026.009-.002.093-.027.016-.005.089-.026.012-.003.091-.026.013-.004c.547-.157 1.101-.312 1.659-.464l.01-.003.099-.027.005-.002.098-.026.01-.003.098-.026.007-.002.092-.025.017-.005.092-.024.014-.004.092-.024.015-.005.09-.024.018-.004.086-.023.023-.006.089-.024.016-.004.09-.024.019-.004.088-.024.02-.005.084-.022.026-.007.083-.022.023-.005.087-.023.022-.005.084-.022.026-.007.08-.02.03-.008.081-.021.025-.006.084-.022.027-.007.08-.02.03-.008.079-.02.03-.007.08-.02.025-.007.086-.022.02-.005.09-.023.018-.004.09-.023.021-.005.093-.023.006-.002.104-.025h.002c.035-.01.072-.019.107-.027l.004-.001q.707-.175 1.425-.343l.004-.001.218-.05.004-.002.106-.024.006-.002.097-.022.017-.004.092-.021.02-.005.09-.02.023-.006.088-.02.026-.006.083-.019.03-.007.085-.019.027-.006.087-.02.025-.005.087-.02.028-.006.081-.018.034-.008.082-.018.03-.006.083-.019.03-.007.083-.018.032-.007.08-.017.035-.008.08-.018.033-.007.082-.018.031-.006.083-.019.032-.006.08-.018.036-.008.079-.016.037-.008.077-.017.037-.008.078-.016.038-.008.076-.017.04-.008.076-.016.038-.008.077-.017.034-.006.085-.018.025-.005.088-.019.031-.006.086-.018.024-.005.091-.019.023-.004.095-.02.007-.002.108-.022.008-.001c.381-.078.761-.154 1.146-.229h.006l.11-.022.006-.002.096-.018.024-.005.094-.018.023-.004.089-.017.03-.006.087-.017.03-.005.082-.016.04-.007.079-.015.037-.007.081-.015.038-.008.084-.015.032-.006.084-.016.038-.007.078-.014.041-.008.076-.014.044-.008.074-.013.045-.009.074-.013.048-.009.07-.012.048-.01.073-.012.046-.008.075-.014.043-.008.078-.014.041-.007.08-.014.04-.007.079-.014.04-.007.08-.014.04-.007.08-.014.041-.007.08-.014.038-.006.083-.015.037-.006.085-.015.034-.006.085-.014.038-.006.084-.015.035-.006.085-.014.04-.006.08-.014.041-.007.08-.013.044-.007.078-.013.038-.007.085-.014.028-.004.094-.016.02-.003c.354-.058.71-.115 1.067-.17h.007l.104-.017.02-.003.096-.015.028-.004.092-.014.031-.005.084-.013.042-.006.08-.012.043-.006.077-.012.048-.007.077-.012.046-.006.077-.012.047-.007.078-.011.047-.007.074-.01.05-.008.077-.011.048-.007.074-.01.051-.008.075-.011.05-.007.073-.01.053-.008.073-.01.051-.008.074-.01.05-.007.077-.01.048-.007.076-.01.05-.008.076-.01.05-.007.074-.01.052-.007.076-.01.048-.007.078-.01.047-.007.08-.01.045-.006.079-.01.05-.007.077-.01.049-.007.076-.01.052-.007.074-.01.056-.007.07-.008.056-.008.073-.01.05-.005.076-.01.05-.006.079-.01.044-.006.082-.01.043-.005.086-.011.034-.004.092-.012.042-.005.086-.01.045-.006.081-.01.048-.005.294-.035.042-.005.07-.009.058-.007.089-.01.038-.004.083-.01.047-.005.08-.01.048-.005.074-.008.057-.007.073-.008.054-.006.077-.009.053-.006.076-.008.052-.006.075-.008.057-.007.074-.008.052-.005.078-.009.054-.005.074-.008.056-.006.072-.008.06-.006.07-.008.059-.006.07-.007.061-.007.07-.007.06-.006.07-.007.06-.006.073-.008.056-.005.074-.008.059-.006.071-.007.06-.006.07-.007.063-.006.068-.006.06-.006.073-.007.06-.006.07-.007.062-.006.068-.006.066-.006.067-.007.06-.005.073-.007.061-.006.07-.006.063-.006.069-.006.065-.006.067-.006.064-.006.07-.006.062-.006.07-.006.065-.005.066-.006.07-.006.064-.006.064-.005.07-.006.063-.006.069-.005.07-.006.062-.005.07-.006.065-.006.056-.004.078-.007.042-.003.333-.027.023-.001.096-.008.038-.003.076-.005.06-.005.06-.005.075-.005.062-.005.071-.006.067-.004.067-.005.07-.006.066-.004.065-.005.07-.005.067-.005.067-.005.07-.004.064-.005.073-.005.064-.004.066-.005.07-.005.069-.004.064-.005.073-.005.063-.003.072-.005.065-.005.068-.004.068-.004.068-.005.069-.004.067-.004.068-.005.07-.004.067-.004.066-.004.073-.004.063-.004.074-.005.063-.003.072-.005.067-.003.07-.004.066-.004.07-.004.069-.004.067-.004.07-.004.067-.003.071-.004.067-.004.068-.004.07-.003.07-.004.067-.003.07-.004.067-.003.071-.004.068-.003.069-.004.07-.003.07-.003.064-.003.074-.004.062-.003.077-.003.064-.003.073-.004.069-.003.07-.003.07-.003.068-.003.07-.003.07-.003.074-.003.063-.003.071-.003.42-.016.068-.003.058-.002.08-.003.065-.003.076-.002.065-.002.074-.003.068-.002.073-.003.067-.002.072-.003.071-.002.07-.002.072-.002.067-.003.073-.002.07-.002.07-.002.069-.002.073-.002.07-.002.07-.002.07-.002.07-.002.072-.002.069-.002.073-.002.067-.001.075-.002.067-.002.073-.002.069-.001.076-.002.065-.001.074-.002.07-.001.073-.002.068-.001.073-.002.07-.001.073-.002h.07l.07-.002.072-.001.073-.002h.07l.072-.002.07-.001.076-.001.066-.001.077-.001.066-.001.077-.001.067-.001.077-.001h.065l.08-.002h.064l.079-.001.064-.001h.078l.067-.001h.077l.066-.001h.08l.065-.002H233.883l.06-.001h.232l.058-.001H234.667a10.667 10.667 0 0 0 0-21.333z"
        style="fill:#f0dfcc" />
    <path
        d="M277.333 319.854h-.27A21.206 21.206 0 0 1 256 298.667c0-25.73 17.042-64 64-64a21.333 21.333 0 0 1 0 42.666c-17.177 0-21.083 11.74-21.333 21.584a21.465 21.465 0 0 1-21.334 20.937zM320 362.667a21.334 21.334 0 0 1-.208-42.667c1.656-.042 30.343-1.302 45.125-30.875a21.336 21.336 0 1 1 38.166 19.083c-26.927 53.844-80.802 54.459-83.083 54.459z"
        style="fill:#a77554" />
    <path
        d="M384.012 255.991a42.468 42.468 0 0 0-38.169 23.578c-8.839 17.685-24.955 19.017-26.764 19.11a41.66 41.66 0 0 0-12.41 2.118 10.667 10.667 0 1 0 6.665 20.265l.012-.003.008-.003.047-.015.014-.005.023-.007.033-.011.018-.006.026-.008.014-.005.041-.013.006-.002a21.295 21.295 0 0 1 5.69-.973q.448-.02.915-.027a46.397 46.397 0 0 0 8.702-1.42l.043-.011.004-.001.04-.01.004-.002.04-.01.005-.001.038-.01.007-.002.04-.01.003-.001.087-.022h.001l.042-.012h.004l.04-.012h.004l.042-.012h.003l.042-.011.002-.001.086-.023h.005l.135-.037.045-.012.003-.001.041-.011.012-.003.033-.01.015-.003.03-.008.013-.004.031-.008.018-.005.027-.008.017-.004.027-.008.02-.005.026-.008.017-.004.028-.008.018-.005.029-.008.015-.004.028-.008.02-.006.027-.007.016-.004.03-.01.016-.003.032-.01.012-.003.031-.008.017-.005.037-.01.006-.002.038-.011.01-.003.276-.08.011-.002.038-.012h.002l.043-.013.01-.002.037-.012.011-.003.035-.01.01-.003.04-.012h.004l.04-.013.012-.003.035-.01.012-.004.033-.01.014-.004.037-.01.009-.004.035-.01.014-.004.03-.01.018-.005.029-.009.018-.005.035-.01.01-.003.036-.011.013-.004.032-.01.015-.005.039-.011.008-.003.088-.027.09-.028.01-.003.029-.009.019-.006.024-.007.023-.007.028-.01.019-.005.029-.009.017-.005.029-.01.02-.006.026-.008.02-.006.033-.01.013-.005.03-.01.02-.005.028-.01.02-.006.026-.008.02-.006.033-.01.01-.004.036-.011.013-.005.036-.011.008-.003.038-.012.01-.004.086-.027.01-.003.037-.013.031-.01.014-.004.035-.011.03-.01.033-.011.077-.026.02-.006.03-.01.016-.005.03-.01.02-.007.028-.01.02-.006.025-.008.026-.01.025-.007.021-.007.028-.01.022-.007.029-.01.017-.006.031-.01.02-.007.03-.01.016-.006.031-.01.02-.007.028-.01.022-.007.026-.009.026-.009.024-.008.021-.007.029-.01.021-.007.028-.01.021-.007.028-.01.018-.006.033-.011.005-.002.184-.065.005-.001.043-.015.006-.002.038-.014.011-.004.034-.012.016-.006.037-.013.011-.004.035-.012.016-.006.032-.011.02-.007.025-.01.026-.009.023-.008.028-.01.021-.008.028-.01.025-.009.025-.009.025-.009.023-.008.03-.01.018-.008.03-.01.023-.009.028-.01.022-.008.027-.01.024-.009.027-.01.024-.009.025-.009.026-.01.026-.01.019-.006.03-.011.017-.007c.057-.02.115-.042.171-.064l.013-.004.035-.014.015-.005.03-.011.023-.01.025-.009.025-.009.028-.01.022-.01.032-.011.017-.007.033-.012.02-.008.029-.011.02-.008.032-.012.02-.008.03-.012.02-.007.032-.012.02-.008.03-.012.018-.007.036-.014.013-.005.038-.014.01-.004.04-.016.015-.006.035-.013.02-.008.03-.013.02-.007.032-.013.018-.007.033-.013.05-.02.038-.014.06-.024.004-.002.033-.013.02-.008.029-.012.022-.009.027-.01.026-.01.03-.013.02-.008.032-.013.02-.008.03-.012.022-.01.028-.01.024-.01.032-.013.017-.007.034-.014.02-.008.03-.013.023-.009.027-.011.025-.01.03-.012.02-.01.03-.011.025-.01.027-.012.026-.01.026-.011.023-.01.032-.013.016-.007.034-.014.021-.01.032-.012.014-.006.037-.016.014-.005.123-.053.02-.008.024-.01.029-.012.032-.014.017-.007.033-.014.022-.01.028-.011.024-.011.027-.012.028-.012.024-.01.027-.012.026-.01.03-.014.02-.009.032-.013.021-.01.033-.014.021-.01.029-.012.025-.01.03-.013.024-.011.025-.011.029-.013.026-.011.025-.012.028-.012.025-.01.028-.013.026-.011.024-.012.03-.012.022-.01.03-.014.019-.008.035-.016.012-.005.058-.026.035-.016.024-.01.029-.013.025-.012.028-.013.03-.013.023-.01.032-.015.02-.01.033-.014.021-.01.029-.013.025-.011.03-.014.023-.01.03-.014.023-.011.032-.015.02-.01.032-.013.022-.01.033-.016.02-.01.032-.014.022-.01.033-.016.02-.009.031-.015.023-.01.032-.015.02-.01.033-.015.02-.01.034-.015.023-.011.029-.014.029-.013.025-.012.034-.017.02-.009.025-.012.049-.023.087-.042.02-.009.035-.017.02-.01.032-.015.027-.013.028-.014.026-.012.027-.013.028-.014.027-.013.027-.013.026-.012.027-.014.029-.014.024-.012.03-.014.026-.013.026-.013.03-.014.023-.011.03-.015.027-.014.026-.013.027-.013.028-.014.027-.013.027-.014.028-.013.025-.013.036-.018.018-.009.036-.018.019-.01.035-.017.02-.01.038-.02.016-.007.109-.055.035-.018.018-.01.03-.014.026-.014.023-.011.033-.017.02-.01.033-.018.025-.012.031-.016.021-.011.034-.017.02-.011.036-.018.019-.01.035-.018.022-.011.034-.018.018-.01.039-.02.015-.008.043-.022.01-.006.043-.021.015-.009.04-.02.015-.008.04-.022.016-.008.041-.022.014-.007.035-.019.023-.011.035-.02.018-.008.048-.026.006-.004.223-.12.008-.003.048-.026.01-.006.044-.023.017-.01.04-.02.016-.01.038-.02.018-.01.039-.022.015-.008.038-.02.02-.012.036-.02.02-.01.034-.019.022-.012.034-.019.023-.013.03-.016.025-.014.032-.018.023-.013.035-.019.018-.01.042-.023.013-.008.043-.024.013-.007.047-.027.008-.004.053-.03h.002l.056-.032.281-.16.011-.007.045-.026.012-.007.043-.024.019-.011.036-.02.018-.011.039-.023.017-.01.039-.022.016-.01.04-.023.016-.01.04-.023.015-.009.041-.023.017-.01.038-.023.018-.01.037-.022.02-.012.037-.022.017-.01.042-.024.014-.008.045-.027.01-.006.048-.029.008-.005c.133-.078.263-.157.396-.238h.001l.055-.033.006-.005.052-.03.002-.003.052-.031.01-.007.047-.028.01-.006.045-.028.011-.007.048-.03.007-.004.048-.03.01-.005.047-.03.009-.005.049-.03.007-.005.053-.034h.001l.053-.033.006-.004.05-.03.007-.006.048-.03.009-.005c.15-.095.303-.192.454-.29l.003-.001.054-.035.003-.002.052-.034.01-.006.045-.03.013-.008.044-.029.012-.007.045-.03.01-.007.046-.03.014-.009.04-.026.017-.01.04-.028.016-.01.043-.028.012-.008.043-.028.015-.01.043-.029.012-.007.046-.031.01-.007.11-.073.002-.002c.153-.102.303-.204.456-.308l.005-.004.052-.035.004-.003.051-.035.01-.006.049-.035.005-.003.049-.034.01-.008.048-.032.008-.006.049-.034.008-.005.05-.034.006-.006.05-.034.007-.005.05-.036.007-.004.05-.035.007-.005.051-.036.005-.004.051-.036.006-.004c.19-.135.379-.27.57-.408l.002-.002.054-.04.002-.001.054-.04.006-.004.05-.037.007-.004.05-.037.007-.006.052-.038.003-.002.053-.039.005-.004.053-.04.003-.001.052-.04.006-.003c.227-.169.455-.342.681-.516l.002-.001.055-.042.003-.003.052-.04.008-.006.049-.038.008-.006.047-.037.01-.008.049-.038.005-.004.05-.039.008-.006.05-.038.007-.007.048-.037.008-.007.052-.04.004-.003.052-.041.005-.004.053-.042.003-.003c.208-.165.415-.331.623-.502l.002-.001.055-.045.002-.002.053-.043.005-.005.052-.042.004-.003.05-.042.009-.007.049-.04.006-.006.05-.042.006-.004.053-.045.002-.001.054-.045.003-.003c.226-.189.451-.38.677-.575l.112-.097.003-.003.054-.047.054-.047.006-.006.05-.044.006-.005.05-.044.006-.005.05-.045.005-.004.05-.044.007-.006.053-.047h.001q.337-.3.672-.607l.003-.003.051-.047.008-.007.048-.045.007-.006.048-.045.01-.008.046-.044.007-.006.05-.046.005-.006.052-.047.002-.002.053-.05.004-.003.051-.049.004-.003.051-.048.005-.005c.24-.226.482-.458.72-.691l.002-.001.053-.053.003-.003.052-.05.004-.005.05-.049.006-.006.049-.048.007-.006.048-.048.007-.007.049-.049.005-.005.05-.05.004-.004.052-.051.003-.004.052-.052.003-.003c.22-.221.439-.444.658-.671l.002-.003.051-.053.006-.006.049-.051.005-.006.049-.05.006-.007.047-.05.008-.008.046-.048.009-.01.045-.048.009-.008.046-.049.008-.009.046-.049.008-.008.047-.05.007-.007.05-.054.003-.003.053-.057c.164-.176.325-.351.488-.53l.003-.003.05-.056.005-.006.048-.052.008-.01.045-.05.008-.009.045-.05.01-.01.043-.049.01-.01.043-.05.01-.011.044-.049.01-.01.044-.05.009-.01.045-.051.008-.009.046-.053.007-.007.049-.056.003-.004c.143-.163.285-.326.427-.491v-.001l.052-.06.006-.007.046-.054.009-.01.044-.052.009-.01.043-.052.01-.011.043-.051.01-.011.043-.051.01-.012.042-.051.01-.012.042-.05.01-.012.043-.05.01-.013.043-.051.01-.011.043-.053.009-.01.044-.054.008-.01.046-.056.005-.006.05-.06.002-.003c.14-.17.28-.341.419-.515l.004-.006.047-.058.007-.009.045-.055.008-.011.043-.054.009-.011.043-.054.01-.012.04-.053.011-.013.041-.052.011-.014.04-.051.012-.014.04-.052.01-.014.042-.052.01-.013.042-.054.01-.011.043-.057.007-.009.045-.058.006-.008.05-.065q.181-.235.36-.472l.003-.003.048-.064.006-.008.044-.059.009-.011.042-.057.009-.011.041-.056.01-.014.04-.053.012-.016.038-.052.012-.016.04-.052.01-.016.04-.053.01-.015.04-.054.01-.014.04-.055.011-.014.04-.055.01-.013.042-.059.008-.01.045-.062.005-.006.045-.064.005-.006.301-.421.002-.002.047-.068.008-.01.041-.06.01-.013.04-.057.01-.013.04-.057.01-.017.038-.054.013-.017.036-.053.014-.019.036-.052.013-.02.036-.05.013-.02.036-.052.013-.02.036-.051.013-.02.037-.053.012-.018.037-.054.012-.018.037-.054.012-.017.038-.057.01-.015.041-.06.008-.012.047-.07v-.001c.083-.122.164-.244.246-.367l.004-.006.044-.067.008-.012.04-.061.01-.014.038-.059.011-.017.037-.055.013-.021.034-.053.015-.022.034-.052.013-.021.034-.052.015-.024.033-.05.014-.023.034-.052.015-.022.033-.052.014-.023.033-.052.015-.022.034-.054.013-.02.035-.056.012-.019.037-.057.01-.018.037-.057.011-.018.043-.067.004-.007.19-.306.002-.002.045-.073.01-.017.037-.06.011-.017.036-.058.013-.022.033-.055.014-.022.033-.053.015-.026.031-.05.016-.027.03-.05.017-.027.03-.05.016-.027.03-.05.017-.028.03-.048.017-.03.029-.048.017-.028.03-.05.016-.028.03-.05.016-.028.03-.05.016-.027.031-.053.014-.024.034-.058.012-.02.036-.062.01-.016.044-.075.001-.003.139-.239.006-.011.04-.068.008-.016.036-.062.014-.023.032-.056.014-.026.03-.053.017-.03.028-.049.018-.03.027-.05.018-.031.027-.048.018-.032.027-.048.018-.033.027-.048.018-.03.027-.05.018-.031.027-.05.017-.03.028-.05.017-.032.027-.049.017-.031.029-.051.016-.03.029-.052.015-.029.03-.053.015-.028.033-.062.01-.018.041-.076.004-.006.089-.166.005-.009.038-.072.014-.025.03-.057.016-.029.028-.053.016-.03.028-.052.017-.033.026-.05.018-.033.026-.049.018-.035.025-.047.02-.038.023-.044.02-.038.024-.046.019-.037.023-.045.02-.039.024-.045.02-.039.022-.044.02-.039.023-.044.02-.04.023-.044.02-.04.024-.045.02-.038.023-.047.019-.037.024-.048.019-.036.025-.05.017-.034.028-.057.014-.028.043-.085a21.346 21.346 0 0 1 19.095-11.8 10.667 10.667 0 0 0 0-21.334z"
        style="fill:#f0dfcc" />
    <path
        d="M127.969 341.26a21.063 21.063 0 0 1-9.604-2.312 21.276 21.276 0 0 1-9.448-28.49C110.03 308.24 136.78 256 192 256a21.333 21.333 0 0 1 0 42.667c-28.635 0-44.823 30.687-44.98 31a21.46 21.46 0 0 1-19.051 11.593z"
        style="fill:#a77554" />
    <path
        d="M277.328 362.66a42.94 42.94 0 0 0-19.054 4.498c-30.744 15.376-46.627 16.879-46.784 16.892-10.432.17-21.51 5.109-29.347 13.503a10.667 10.667 0 1 0 15.594 14.559q.428-.459.883-.892a21.275 21.275 0 0 1 13.26-5.84q.703-.058 1.423-.074a55.467 55.467 0 0 0 5.866-.897h.004l.031-.007h.001l.03-.006.007-.001.028-.006.004-.001.028-.006h.006l.232-.047h.002l.014-.004.06-.012.01-.002.025-.005.027-.005h.001l.026-.006.016-.003.017-.004.018-.003.016-.004.02-.004.022-.004.008-.002.024-.005.026-.005.005-.001.03-.006.01-.003.023-.004.015-.003.027-.006.006-.002.302-.063h.002l.073-.016h.006l.032-.007.005-.002a164.346 164.346 0 0 0 27.194-8.723h.002q1.155-.47 2.346-.967l.004-.002.082-.034.003-.001.078-.033.013-.006.074-.03.007-.004.08-.033.004-.001.165-.07.008-.003.077-.032.008-.004.072-.03.017-.008.16-.067.008-.003.513-.218.015-.006.073-.031.01-.004.075-.032.014-.006.074-.032.011-.004.074-.032.012-.005.075-.032.012-.005.07-.03.02-.01.068-.028.017-.007.072-.031.014-.006.08-.035.004-.001.082-.035.006-.003c.234-.1.467-.2.703-.303l.003-.001.082-.036.012-.005.071-.03.022-.01.066-.029.021-.01.064-.027.026-.011.062-.027.024-.01.065-.029.023-.01.075-.032.009-.004.445-.195h.001l.176-.077.012-.006.08-.034.006-.003.08-.035.015-.007.072-.032.022-.01.06-.026.033-.014.06-.027.026-.011.062-.028.027-.012.059-.026.033-.014.059-.026.026-.012.072-.032.016-.007.073-.032.017-.008.066-.029.026-.011.084-.038.003-.001.09-.04.003-.001.086-.038.025-.012.064-.028.03-.013.058-.027.037-.016.052-.023.04-.018.046-.02.049-.022.039-.018.05-.023.037-.016.053-.023.04-.018.045-.02.041-.019.054-.024.032-.014.054-.025.038-.016.053-.024.036-.017.05-.022.04-.018.053-.024.021-.01.068-.03.014-.006.14-.063.022-.01.038-.018.05-.022.044-.02.049-.022.053-.024.032-.014.055-.025.039-.018.05-.023.036-.016.06-.027.03-.014.061-.028.026-.011.06-.028.037-.017.051-.023.038-.017.052-.024.04-.018.052-.024.035-.016.056-.026.036-.016.052-.024.05-.022.04-.018.053-.025.04-.018.046-.021.044-.02.092-.042.017-.008.073-.034.05-.023.04-.018.053-.024.04-.018.046-.022.046-.021.049-.022.04-.019.059-.027.03-.014.06-.027.033-.016.057-.026.037-.017.05-.024.043-.02.053-.024.035-.016.057-.026.037-.017.054-.026.035-.016.06-.028.021-.01.072-.032.015-.008.076-.035.01-.004.236-.11.026-.012.053-.025.042-.02.055-.025.035-.017.056-.026.04-.018.052-.025.04-.018.053-.025.042-.02.046-.021.05-.024.041-.02.055-.025.042-.02.047-.021.049-.023.045-.022.049-.022.047-.022.044-.02.053-.026.043-.02.048-.023.045-.021.055-.026.04-.019.055-.026.04-.018.187-.09.053-.024.04-.019.06-.029.033-.015.065-.03.029-.015.055-.026.043-.02.056-.026.036-.018.053-.025.047-.022.049-.023.044-.021.05-.024.045-.022.052-.025.044-.02.048-.023.048-.023.05-.024.045-.021.049-.024.042-.02.058-.027.03-.015.061-.03.053-.024.045-.022.094-.045.011-.005.083-.04.049-.023.048-.023.057-.028.036-.017.052-.025.05-.024.042-.02.051-.025.052-.025.043-.02.055-.028.041-.02.05-.024.051-.024.048-.023.046-.022.05-.025.048-.022.05-.025.045-.022.05-.024.05-.024.05-.024.038-.018.06-.03.033-.016.064-.03.035-.018.06-.029.068-.033.057-.027.07-.034.048-.024.046-.022.052-.026.049-.023.04-.02.06-.03.035-.017.063-.03.04-.02.056-.027.045-.022.054-.027.041-.02.062-.03.034-.017.064-.031.038-.019.06-.03.038-.018.06-.03.04-.02.065-.03.032-.016.074-.037.026-.012.065-.032.037-.019.063-.03.035-.018.197-.097.041-.02.06-.03.04-.02.059-.029.042-.021.058-.028.045-.023.053-.026.046-.023.056-.028.042-.02.058-.03.041-.02.06-.029.045-.022.049-.025.052-.026.05-.025.049-.024.049-.024.053-.027.046-.023.053-.026.047-.024.053-.026.05-.025.05-.025.06-.03.04-.02.1-.05a21.33 21.33 0 0 1 9.537-2.256 10.667 10.667 0 0 0 0-21.333zM320 213.333c-49.438 0-75.172 33.326-82.77 64.513a10.667 10.667 0 1 0 20.727 5.05l.033-.133v-.005l.017-.066.017-.067v-.002l.016-.065.001-.004.017-.065v-.002l.015-.06.003-.01.015-.06.003-.013.03-.12.004-.014.014-.057.005-.017.01-.042.006-.02.013-.054.005-.02.013-.047.005-.022.011-.043.005-.02.014-.051.007-.026.008-.032.01-.04.009-.033.008-.03.008-.031.012-.044.006-.025.008-.031.012-.045.008-.03.008-.03.012-.043.008-.03.008-.03.006-.023.015-.056.005-.017.017-.065.004-.012.01-.036.004-.018.017-.062.004-.014.033-.12v-.003c4.967-18.094 17.765-36.839 41.597-43.6h.003l.164-.046.004-.001.276-.077.444-.12.01-.003.106-.029.056-.014.004-.002.102-.027.012-.003.162-.042.007-.002.106-.028h.003l.163-.042.012-.003.162-.041.011-.003.095-.024.016-.004.16-.04.012-.003.102-.025.006-.001.055-.014.009-.002.097-.023.017-.005.158-.038.018-.004.09-.021.02-.005.154-.037.024-.006.092-.021.012-.003.051-.012.022-.005.084-.02.023-.005.155-.035.025-.006.084-.019.022-.005.049-.011.022-.005.084-.019.026-.006.076-.017.031-.006.046-.01.03-.007.074-.016.031-.007.046-.01.038-.008.066-.015.032-.006.074-.016.033-.007.045-.01.031-.007.075-.016.03-.006.045-.01.061-.012.045-.01.037-.007.062-.013.042-.009.042-.008.049-.01.056-.012.037-.007.057-.012.046-.01.047-.009.031-.006.072-.014.038-.008.042-.008.063-.012.042-.009.04-.008.052-.01.052-.01.041-.008.047-.009.057-.01.043-.009.039-.008.065-.012.04-.008.044-.008.06-.01.043-.009.04-.008.066-.012.04-.007.043-.008.055-.01.049-.01.043-.007.042-.007.063-.012.039-.007.043-.007.065-.012.041-.007.04-.007.068-.012.038-.007.044-.008.051-.009.054-.009.043-.008.039-.006.068-.011.039-.007.05-.009.053-.009.048-.008.038-.006.07-.012.036-.006.05-.008.041-.007.066-.01.031-.006.068-.01.037-.007.057-.009.03-.005.075-.011.034-.006.057-.009.037-.005.064-.01.033-.006.074-.011.032-.005.053-.008.035-.005.072-.011.036-.006.059-.009.043-.006.056-.008.034-.006.073-.01.034-.005.058-.009.029-.004.073-.01.035-.006.072-.01.034-.005.054-.007.033-.005.075-.01.033-.005.063-.009.034-.005.067-.009.03-.004.077-.01.03-.005.063-.008.025-.003.078-.011.032-.004.072-.01.031-.004.06-.007.035-.005.074-.01.034-.004.06-.008.03-.003.074-.01.032-.004.077-.01.03-.003.063-.008.026-.003.08-.01.028-.003.075-.01.025-.002.07-.009.03-.003.08-.01.025-.002.071-.009.02-.002.085-.01.024-.002.085-.01.018-.002.074-.009.023-.002.084-.01.024-.002.08-.009.01-.001.086-.01.026-.002.085-.009.02-.002.073-.008.022-.002.084-.009.026-.002.084-.01h.018l.076-.009.023-.002.086-.008.023-.003.075-.007.017-.002.086-.008.026-.002.086-.009.018-.002.077-.007.02-.002.088-.008.022-.002.082-.007.016-.002.081-.007.026-.002.085-.008.025-.002.072-.006.022-.002.084-.007.028-.003.086-.007.017-.002.076-.006.024-.002.086-.007.023-.002.08-.006.014-.001.09-.007.023-.002.088-.007.02-.002.077-.005.02-.002.087-.007.026-.001.086-.007h.012l.085-.007.022-.001.089-.007.021-.001.08-.006h.016l.09-.007.022-.001.091-.006.014-.001.084-.006.019-.001.088-.006.026-.001.084-.005.008-.001.091-.006.024-.001.091-.005.015-.001.085-.005.016-.001.092-.006h.021l.094-.006h.007l.09-.005.018-.001.092-.005.02-.001.086-.005h.012l.092-.005.023-.001.093-.005h.01l.088-.004.019-.001.091-.005h.021l.09-.005h.01l.09-.004.024-.001.09-.004h.022l.081-.004h.016l.094-.005h.02l.095-.004h.012l.086-.004h.02l.094-.004h.018l.09-.004h.01l.094-.003h.022l.093-.004h.019l.082-.003h.02l.093-.003h.02l.195-.006h.02c.03-.002.064-.002.095-.003h.017l.09-.002h.01l.097-.003h.021l.094-.003h.017l.085-.002h.018l.095-.002h.022l.094-.002h.003l.097-.001h.023l.095-.002h.014l.094-.002h.01l.098-.001h.019l.097-.001h.013l.089-.001h.02l.095-.001h.019l.094-.001h.126l.096-.001h.121l.097-.001h.12a10.667 10.667 0 0 0 0-21.333zM192 234.667c-34.264 0-66.068 16.622-89.552 46.804a10.667 10.667 0 1 0 16.837 13.1 112.162 112.162 0 0 1 22.451-21.922l.006-.004a94.894 94.894 0 0 1 6.631-4.393l.004-.003.053-.03.003-.003.219-.131.001-.001a128.6 128.6 0 0 1 1.169-.688l.003-.001.223-.129.223-.127.005-.004.45-.254.002-.001.282-.159.004-.002.224-.125.004-.002.513-.282.003-.002.169-.092h.003l.053-.03.008-.004.168-.091h.001l.052-.029.012-.006.222-.12.006-.003c.23-.122.462-.245.694-.366l.003-.002.057-.03.232-.12.006-.003.228-.118.007-.004.055-.028.002-.001.171-.088.008-.004.051-.026.013-.007.225-.114.008-.004.227-.114.01-.005.224-.112.017-.009.17-.084.049-.025.02-.009.049-.024.007-.004.168-.082.01-.006.054-.026.005-.002c.056-.028.109-.054.165-.08l.017-.009.05-.024.012-.007a38.8 38.8 0 0 1 .163-.078l.014-.007.05-.025.012-.005.162-.078.015-.007.048-.023.019-.009.05-.024.007-.004.17-.08.01-.005.055-.026.004-.002.175-.083.006-.003.056-.026.007-.003.175-.082.004-.002.056-.026.01-.005.172-.08.006-.002.055-.026.009-.004.233-.107.013-.006.054-.025.003-.001.173-.08.015-.006.054-.024.004-.002.174-.08.012-.004.052-.024.015-.007.166-.074.012-.005.054-.024.012-.006.169-.075.012-.005.051-.023.015-.007.054-.023.002-.001.122-.054.055-.024.014-.006.053-.024.009-.003.17-.075.016-.007.05-.022.018-.007.166-.072.013-.006.053-.022.013-.006.172-.074.01-.004.053-.022.017-.008.168-.071.012-.005.05-.022.02-.008.052-.022.005-.002.114-.048.008-.003.05-.021.023-.01.048-.02.015-.006.168-.07.016-.007.054-.022.01-.004.172-.071.015-.007.052-.02.017-.008.164-.067.02-.008.05-.02.02-.009.051-.02.004-.002.11-.044.017-.007.052-.02.016-.008.055-.022.126-.05h.002l.054-.023.017-.006.053-.021.014-.006.168-.067.02-.007.052-.02.015-.007.171-.067.015-.006.052-.02.02-.008.166-.065.018-.007.05-.019.023-.009.05-.019.011-.004.103-.04.019-.007.05-.02.022-.008.05-.02.017-.005.104-.04.012-.005.05-.019.025-.009.048-.018.022-.008.16-.06.028-.011.046-.018.026-.01.16-.059.023-.009.05-.018.021-.008.167-.062.02-.007.05-.018.023-.009.048-.017.022-.008.096-.035.02-.007.05-.019.022-.008.05-.018.02-.007.098-.035.02-.008.046-.016.029-.01.045-.017.03-.01.097-.035.012-.005.048-.017.027-.01.047-.016.025-.01.166-.057.02-.008.05-.017.026-.01.05-.016.003-.002.112-.039.021-.007.05-.017.027-.01.046-.016.03-.01.078-.027.034-.012.043-.015.032-.01.045-.016.03-.01.082-.028.03-.01.042-.015.036-.012.041-.014.033-.011.107-.036h.002l.048-.017.03-.01.044-.015.033-.01.155-.052.033-.012.041-.013.037-.013.041-.013.042-.014.067-.022.036-.011.042-.014.036-.012.042-.014.034-.01.08-.027.03-.01.046-.015.03-.01.047-.015.023-.007.095-.03.025-.008.045-.015.031-.01.047-.015.027-.008.094-.03.022-.007.049-.016.025-.008.05-.015.026-.009.17-.053.02-.006.052-.016.025-.008.052-.016.003-.001.114-.036.023-.007.05-.015.029-.009.048-.015.027-.008.085-.026.032-.01.047-.014.03-.01.048-.014.027-.008.089-.027.028-.008.045-.014.034-.01.044-.013.035-.01.056-.017.056-.017.042-.012.038-.012.042-.012.037-.011.042-.013.039-.01.072-.022.04-.011.04-.012.038-.012.04-.011.045-.013.07-.02.035-.01.046-.014.032-.009.045-.013.033-.01.085-.024.03-.008.046-.013.033-.01.045-.013.036-.01.074-.02.04-.012.04-.011.04-.011.04-.012.04-.01.066-.019.046-.013.043-.012.036-.01.044-.012.037-.01.044-.012.016-.004.105-.029.025-.007.05-.013.03-.009.048-.012.033-.01.08-.021.037-.01.042-.011.04-.011.041-.011.038-.01.079-.021.033-.01.046-.011.035-.01.045-.012.037-.009.065-.017.05-.013.04-.01.041-.011.042-.011.037-.01.059-.015.056-.015.042-.01.04-.01.043-.012.036-.009.045-.011.06-.016.049-.012.046-.012.038-.01.043-.01.04-.01.053-.014.055-.013.047-.012.04-.01.042-.01.04-.01.05-.013.052-.013.055-.013.038-.01.043-.01.04-.01.046-.011.05-.012.062-.015.037-.009.044-.01.04-.01.045-.011.038-.009.076-.018.033-.008.049-.012.038-.009.046-.01.038-.01.062-.014.055-.013.037-.009.045-.01.04-.01.042-.009.058-.013.05-.012.048-.01.042-.01.04-.01.043-.01.045-.01.063-.014.048-.01.043-.01.04-.01.043-.01.044-.009.038-.008.075-.017.04-.01.043-.009.042-.009.043-.01.04-.008.074-.017.04-.008.044-.01.041-.009.044-.01.039-.008.073-.015.038-.009.05-.01.037-.008.05-.01.035-.008.066-.014.04-.009.056-.011.037-.008.05-.01.034-.008.06-.012.04-.008.064-.013.037-.008.046-.01.04-.008.052-.01.032-.007.078-.016.036-.007.049-.01.038-.008.05-.01.035-.007.078-.015.035-.007.05-.01.038-.007.05-.01.035-.007.064-.013.055-.01.043-.009.04-.008.048-.009.038-.007.055-.01.062-.013.043-.008.044-.008.043-.008.043-.008.045-.009.062-.012.052-.01.042-.007.045-.008.041-.008.047-.009.037-.006.078-.015.037-.007.05-.009.039-.007.05-.009.035-.006.08-.015.032-.005.055-.01.035-.006.053-.01.034-.006.069-.012.047-.008.05-.009.04-.007.044-.008.043-.007.052-.009.057-.01.055-.009.038-.007.05-.008.037-.006.055-.01.046-.007.066-.011.036-.006.05-.008.04-.007.053-.009.032-.005.082-.014.034-.005.052-.009.037-.006.054-.008.034-.006.082-.013.03-.005.055-.009.04-.006.049-.008.037-.005.076-.012.038-.006.053-.008.04-.006.048-.008.04-.006.063-.01.04-.006.064-.01.037-.005.053-.008.035-.005.07-.01.016-.003.085-.013.034-.004.053-.008.038-.006.058-.008.028-.005.084-.012.032-.004.056-.008.037-.005.057-.009.03-.004.084-.012.029-.003.06-.009.034-.005.058-.008.032-.004.08-.01.032-.005.06-.009.034-.004.058-.008.032-.004.077-.01.021-.003.075-.01.037-.005.054-.007.034-.005.068-.008.02-.003.086-.011.032-.004.057-.007.036-.005.062-.007.026-.004.086-.01.03-.004.06-.008.033-.004.06-.007.032-.004.085-.01.025-.003.064-.008.032-.004.063-.007.03-.004.085-.01.022-.002.068-.008.032-.004.06-.007.033-.003.08-.01h.01l.086-.01.031-.004.061-.007.033-.003.065-.008.025-.002.086-.01.03-.003.061-.006.035-.004.06-.007.03-.003.085-.009.03-.003.063-.006.033-.004.06-.006.032-.003.085-.009.029-.003.062-.006.035-.003.058-.006.034-.004.076-.007.035-.003.066-.007.033-.003.059-.006.034-.003.077-.007.014-.001.087-.008.031-.003.062-.006.032-.003.07-.006.021-.002.09-.008.028-.003.061-.005.037-.003.06-.005.03-.003.088-.007.03-.003.061-.005.035-.003.06-.005.033-.003.088-.007.024-.002.065-.005.038-.003.055-.005.038-.003.075-.006.037-.003.063-.004.038-.003.058-.005.033-.002.084-.006.007-.001.09-.007.033-.002.06-.004.033-.003.075-.005.017-.001.09-.006.031-.003.062-.004.034-.002.067-.005.025-.001.09-.006.025-.002.069-.004.032-.003.063-.004.031-.002.088-.005.029-.002.064-.004.034-.002.067-.004.025-.001.091-.006h.018l.076-.005.033-.002.062-.003.032-.002.077-.005h.017l.09-.006.033-.001.063-.003.03-.002.074-.004.021-.001.092-.005h.025l.067-.004.034-.002.07-.003.024-.001.092-.005h.022l.073-.004.028-.001.07-.003.028-.002.09-.004h.022l.072-.003.033-.002.064-.002.033-.002.08-.003.03-.001.073-.003.034-.001.063-.002.033-.002.075-.002.019-.001.09-.003.033-.001.066-.003h.03l.077-.003h.017l.095-.003.022-.001.073-.002.03-.001.073-.002.022-.001.095-.003h.016l.082-.002h.025l.072-.002.026-.001.094-.002h.016l.08-.003h.03l.069-.002h.028l.089-.002h.015l.086-.002h.028l.07-.002h.028l.09-.002h.005l.096-.001h.026l.072-.001.029-.001.075-.001h.022l.094-.001h.025l.07-.001h.034l.072-.001h.022l.097-.001h.017l.079-.001h.128l.094-.001H192a10.667 10.667 0 1 0 0-21.333z"
        style="fill:#f0dfcc" />
    <path
        d="M341.333 213.042h-.53A21.094 21.094 0 0 1 320 192c0-3.083.77-30.948 27.583-57.75a21.331 21.331 0 0 1 30.167 30.167c-14.24 14.24-15.063 27.53-15.094 28.083a21.59 21.59 0 0 1-21.323 20.542z"
        style="fill:#a77554" />
    <path
        d="M362.667 106.667a42.387 42.387 0 0 0-30.168 12.498c-32.201 32.188-33.832 66.32-33.832 72.835a42.66 42.66 0 0 0 .448 6.18 10.667 10.667 0 0 0 21.11-3.078 21.236 21.236 0 0 1-.182-1.733l-.003-.048v-.004l-.008-.134v-.015l-.003-.04v-.01l-.004-.078v-.014l-.002-.036-.001-.023-.002-.034-.001-.03-.002-.05-.001-.028-.002-.03v-.032l-.002-.027-.001-.053-.001-.026-.001-.034v-.025l-.002-.043v-.028l-.002-.045v-.022l-.001-.041v-.02l-.002-.058v-.08l-.001-.049v-.088l-.001-.046V192c0-3.083.77-30.948 27.583-57.75a21.265 21.265 0 0 1 15.084-6.25 10.667 10.667 0 0 0 0-21.333z"
        style="fill:#f0dfcc" />
    <path
        d="M384 256a21.334 21.334 0 0 1-.208-42.667c9.833-.26 21.541-4.177 21.541-21.333A21.333 21.333 0 0 1 448 192c0 46.958-38.27 64-64 64z"
        style="fill:#a77554" />
</svg>