<svg xmlns="http://www.w3.org/2000/svg" viewBox="0 0 120 120" xml:space="preserve"><path fill="#FBCF26" d="M33.396 33.914v52h52v-52h-52zm42.749 23.25h-8v22.25h-17.75v-22.25h-7.5v-17.75h33.251v17.75z"/><path fill="#1A2559" d="M37.729 43.165h2.918v-3.001h-2.918v3.001zm-4.998-.001h2.915v-3h-2.915v3zm-5.001-.001h2.916v-3H27.73v3zm9.999 13.25h2.918v-2.999h-2.918v2.999zm-4.998.002h2.915v-3.002h-2.915v3.002zm-5.001 0h2.916v-3H27.73v3zm60.75-16.251v3h2.917v-3H88.48zm-5 2.999h2.916v-2.999H83.48v2.999zm-5.001 0h2.917v-3h-2.917v3zm10.001 13.25h2.917v-2.999H88.48v2.999zm-5 .002h2.916v-3.001H83.48v3.001zm-5.001-.002h2.917v-3h-2.917v3zm-14.04 38.084h2.999v-2.916h-2.999v2.916zm0-4.999h2.999v-2.916h-2.999v2.916zm0-5.001h2.999v-2.916h-2.999v2.916zm-13.25 10.001h3v-2.916h-3v2.916zm0-5.001h3v-2.916h-3v2.916zm0-5h3v-2.916h-3v2.916zm13.25-46.998h2.999v-2.917h-2.999v2.917zm0-5.001h2.999v-2.916h-2.999v2.916zm0-4.999h2.999v-2.917h-2.999v2.917zm-13.25 9.998h3v-2.916h-3v2.916zm0-4.999h3v-2.916h-3v2.916zm0-4.999h3v-2.916h-3v2.916zM50.395 79.414v-22.25h-7.5v-17.75h33.251v17.75h-8v22.25H50.395zm-4.501-25.25h7.5l.002 22.249h11.75V54.164h8V42.413H45.894v11.751z"/></svg>