<svg xmlns="http://www.w3.org/2000/svg" xml:space="preserve" width="2048" height="2048" style="shape-rendering:geometricPrecision;text-rendering:geometricPrecision;image-rendering:optimizeQuality;fill-rule:evenodd;clip-rule:evenodd"><defs><clipPath id="id0"><path d="M1024 0c565.541 0 1024 458.459 1024 1024 0 565.541-458.459 1024-1024 1024C458.459 2048 0 1589.541 0 1024 0 458.459 458.459 0 1024 0z"/></clipPath><style>.fil1{fill:#303f9f}.fil5{fill:#e53935;fill-rule:nonzero}</style></defs><g id="Layer_x0020_1"><path d="M1024 0c565.541 0 1024 458.459 1024 1024 0 565.541-458.459 1024-1024 1024C458.459 2048 0 1589.541 0 1024 0 458.459 458.459 0 1024 0z" style="fill:#5c6bc0"/><g style="clip-path:url(#id0)"><g id="_308722672"><path id="_3030706001" class="fil1" d="M1467.04 654.654 2602.92 1790.54l3.63 4.32 3.54 4.41 3.43 4.49 3.32 4.58 3.21 4.65 3.11 4.74 2.99 4.81 2.87 4.88 2.77 4.96 2.64 5.03 2.53 5.1 2.4 5.16 2.28 5.23 2.16 5.29 2.03 5.35 1.9 5.41 1.77 5.47 1.64 5.53 1.51 5.57 1.38 5.63 1.23 5.68 1.1 5.72.96 5.77.81 5.81.68 5.86.52 5.89.38 5.94.23 5.96.08 6.01-.07 6.03-.23 6.06L1523.84 820l.23-6.063.07-6.034-.08-6.001-.23-5.968-.38-5.932-.52-5.895-.68-5.854-.81-5.814-.96-5.77-1.1-5.724-1.23-5.677-1.38-5.628-1.51-5.577-1.64-5.523-1.77-5.468-1.9-5.412-2.03-5.353-2.16-5.291-2.28-5.229-2.41-5.164-2.52-5.096-2.64-5.028-2.77-4.958-2.87-4.885-2.99-4.811-3.11-4.734-3.21-4.656-3.32-4.575-3.43-4.494-3.54-4.41z"/><path id="_303070144" class="fil1" d="m1150.29 534.73 1135.88 1135.88 2.15 2.45 2.12 2.47 2.07 2.51 2.04 2.54 2 2.58 1.96 2.6 1.92 2.63 1.88 2.67 1.84 2.69 1.8 2.72 1.76 2.75 1.72 2.78 1.67 2.81 1.63 2.83 1.59 2.86 1.55 2.89 1.5 2.91 1.46 2.94 1.41 2.96 1.37 2.99 1.33 3.01 1.27 3.04L1188.33 595.353l-1.28-3.034-1.32-3.012-1.37-2.987-1.41-2.964-1.46-2.937-1.5-2.913-1.55-2.886-1.59-2.861-1.63-2.833-1.68-2.807-1.71-2.779-1.76-2.751-1.8-2.721-1.84-2.693-1.88-2.664-1.92-2.633-1.96-2.603-2-2.573-2.04-2.541-2.07-2.509-2.12-2.477z"/><path id="_303071416" class="fil1" d="M1448.19 979.332 2584.07 2115.21l-4.22 3.73-4.31 3.64-4.41 3.53-4.49 3.43-4.57 3.33-4.65 3.23-4.74 3.12-4.81 3.02-4.89 2.91-4.97 2.8-5.03 2.69-5.11 2.58-5.17 2.46-5.24 2.35-5.31 2.24-5.37 2.11-5.43 2-5.48 1.88-5.54 1.76-5.6 1.64-5.65 1.51-5.7 1.39-5.75 1.26-5.79 1.13-5.84 1-5.88.88-5.92.74-5.96.6-6 .47-6.03.34-6.07.2-6.09.06-1135.88-1135.88 6.09-.06 6.07-.2 6.03-.34 5.99-.47 5.96-.61 5.93-.74 5.88-.87 5.84-1 5.79-1.14 5.75-1.26 5.7-1.38 5.65-1.52 5.59-1.63 5.55-1.76 5.48-1.88 5.43-2 5.37-2.12 5.3-2.23 5.24-2.35 5.18-2.47 5.11-2.58 5.03-2.69 4.97-2.8 4.89-2.9 4.81-3.02 4.73-3.12 4.66-3.229 4.57-3.33 4.49-3.433 4.4-3.533 4.32-3.633z"/><path id="_303071224" class="fil1" d="m1278.17 1043.36 1135.88 1135.88-55.78-.1-1135.88-1135.88z"/><path id="_303071344" class="fil1" d="m1222.39 1043.26 1135.88 1135.88-.9.03-.9.02-.91.01-.91.02-.9.01h-.91l-.91.01h-.91L1215.14 1043.36h.91l.91-.01h.91l.9-.02.91-.01.9-.02.91-.02z"/><path id="_303071464" class="fil1" d="m1215.14 1043.36 1135.88 1135.88-505.73-.87L709.412 1042.49z"/><path id="_303071608" class="fil1" d="M709.412 1042.49 1845.29 2178.37h-1.21l-1.18-.01-1.14-.02-1.1-.02-1.07-.03-1.03-.03-.99-.04-.96-.04L700.727 1042.29l.958.05.996.04 1.03.03 1.067.03 1.105.02 1.14.02 1.176.01z"/><path id="_302163168" class="fil1" d="M700.727 1042.29 1836.61 2178.18l-4.72-.3-4.68-.42-4.65-.54-4.6-.66-4.57-.78-4.52-.89-4.48-1-4.43-1.11-4.39-1.23-4.34-1.33-4.3-1.44-4.24-1.54-4.2-1.65-4.14-1.75-4.09-1.84-4.04-1.95-3.98-2.04-3.93-2.14-3.86-2.23-3.81-2.33-3.75-2.41-3.69-2.5-3.63-2.59-3.56-2.67-3.49-2.76-3.43-2.84-3.37-2.92-3.29-2.99L586.548 993.446l3.295 2.996 3.363 2.919 3.429 2.839 3.498 2.76 3.561 2.67 3.625 2.59 3.687 2.5 3.749 2.41 3.809 2.33 3.867 2.23 3.926 2.13 3.981 2.05 4.037 1.94 4.09 1.85 4.145 1.75 4.195 1.65 4.245 1.54 4.295 1.44 4.343 1.33 4.388 1.23 4.436 1.11 4.478 1 4.523.89 4.564.78 4.605.66 4.644.53 4.682.43z"/><path id="_302163600" class="fil1" d="m1523.84 820 1135.88 1135.88-.38 6-.52 5.95-.67 5.89-.81 5.84-.95 5.78-1.09 5.72-1.23 5.66-1.37 5.6-1.5 5.54-1.63 5.47-1.76 5.42-1.89 5.34-2.01 5.28-2.14 5.21-2.27 5.14-2.38 5.07-2.5 5-2.62 4.92-2.74 4.85-2.85 4.77-2.96 4.7-3.06 4.62-3.18 4.53-3.28 4.46-3.39 4.37-3.49 4.29-3.59 4.21-3.69 4.12-3.78 4.03-3.88 3.94-3.97 3.85-4.07 3.76L1448.19 979.332l4.07-3.762 3.97-3.852 3.88-3.942 3.78-4.032 3.69-4.119 3.59-4.205 3.49-4.291 3.38-4.373 3.29-4.456 3.17-4.537 3.07-4.617 2.96-4.696 2.85-4.773 2.74-4.85 2.62-4.924 2.5-4.997 2.38-5.069 2.26-5.14 2.14-5.21 2.02-5.278 1.89-5.346 1.76-5.411 1.63-5.475 1.5-5.54 1.37-5.601 1.22-5.662 1.1-5.721.95-5.779.81-5.837.67-5.891.52-5.947z"/><path id="_302163816" class="fil1" d="M1227.62 1072.91 2363.5 2208.79v9.58L1227.62 1082.49z"/><path id="_302163384" class="fil1" d="M862.316 1082.49 1998.2 2218.37v269.86L862.316 1352.34z"/><path id="_302163096" class="fil1" d="m1055.48 1072.91 1135.88 1135.88v12.82L1055.48 1085.73z"/><path id="_302163192" class="fil1" d="M862.316 1072.91 1998.2 2208.79v9.58L862.316 1082.49z"/><path id="_302163360" class="fil1" d="m1055.48 1085.73 1135.88 1135.88v361.05L1055.48 1446.78z"/><path id="_302164560" class="fil1" d="M1227.62 1082.49 2363.5 2218.37v269.86L1227.62 1352.34z"/><path id="_302164536" class="fil1" d="m1112.48 1446.78 1135.88 1135.88-14.22 21.24-1135.88-1135.88z"/><path id="_302164416" class="fil1" d="M904.919 1352.34 2040.8 2488.23l-10.63 15.87L894.292 1368.22z"/><path id="_302163912" class="fil1" d="M894.292 1368.22 2030.17 2504.1l-52.54 78.47L841.753 1446.69z"/><path id="_302164224" class="fil1" d="M1259.6 1368.22 2395.48 2504.1l-52.54 78.47-1135.88-1135.88z"/><path id="_302164248" class="fil1" d="m1270.23 1352.34 1135.88 1135.89-10.63 15.87L1259.6 1368.22z"/><path id="_302164296" class="fil1" d="M1098.26 1468.02 2234.14 2603.9l-70.29 104.99-1135.89-1135.88z"/><path id="_302163888" class="fil1" d="m1027.96 1573.01 1135.89 1135.88-7.36 10.99L1020.61 1584z"/><path id="_302164056" class="fil1" d="M841.753 1446.69 1977.63 2582.57l-5.49 8.22L836.254 1454.91z"/><path id="_302164128" class="fil1" d="m1207.06 1446.69 1135.88 1135.88-5.5 8.22-1135.88-1135.88z"/><path id="_308722192" class="fil1" d="M1463.3 650.419c40.422 44.694 63.798 104.754 60.543 169.58-3.225 64.27-31.83 119.704-75.647 159.332-44.569 40.309-104.867 64.135-170.022 64.024l-55.778-.096c-2.409.068-4.825.1-7.25.096l-505.73-.864a181.41 181.41 0 0 1-8.685-.198c-50.532-2.536-94.956-26.071-126.647-61.587-31.377-35.162-50.306-82.242-50.22-132.305.005-3.165.066-6.05.18-8.641-.125-3.033-.184-6.08-.18-9.135.007-3.858.087-7.33.24-10.404 2.936-58.455 29.29-110.193 69.527-146.583 40.24-36.393 94.31-57.438 152.665-54.51 10.937.549 21.466 1.867 31.54 3.893a193.803 193.803 0 0 1 21.706-35.223c12.902-28.209 31.777-53 54.933-72.84 39.727-34.04 92.043-53.516 148.383-50.69 47.219 2.371 90.052 20.02 123.957 47.919 26.873 22.114 48.134 50.67 61.522 83.165a234.93 234.93 0 0 1 39.82-14.577c22.97-6.125 47.287-8.835 72.332-7.578 64.927 3.257 122.395 32.532 162.812 77.222zm-243.006 422.487h7.332V1352.345h42.604l-10.628 15.872-52.538 78.474-5.499 8.215-5.5-8.215-52.54-78.474-10.626-15.872h41.774V1072.906h45.622zm-164.814 12.823v361.05h57.001l-14.22 21.236-70.293 104.994-7.358 10.992-7.358-10.992-70.295-104.994-14.218-21.236h55.89v-373.873h70.851v12.823zm-193.16-3.238v269.854H904.922l-10.626 15.872-52.539 78.474-5.5 8.215-5.5-8.215-52.537-78.474-10.627-15.872H809.365V1072.906h52.955v9.585z"/></g></g><path d="M1024 0c565.541 0 1024 458.459 1024 1024 0 565.541-458.459 1024-1024 1024C458.459 2048 0 1589.541 0 1024 0 458.459 458.459 0 1024 0z" style="fill:none"/><path d="M1300.48 573.198c64.928 3.259 122.395 32.532 162.812 77.222 40.422 44.694 63.798 104.753 60.543 169.58-3.225 64.27-31.83 119.704-75.646 159.332-44.57 40.308-104.868 64.135-170.023 64.024l-551.84-.944c-3.582-.005-6.74-.078-9.476-.215-55.14-2.768-103.613-28.45-138.196-67.202-34.237-38.37-54.89-89.74-54.797-144.37.006-3.858.086-7.332.241-10.404 2.934-58.455 29.289-110.193 69.526-146.583 40.24-36.393 94.31-57.438 152.665-54.509 12.119.607 23.737 2.16 34.792 4.574 1.838.401 3.67.828 5.496 1.28 10.779-43.726 35.022-81.862 67.891-110.024 39.728-34.04 92.042-53.516 148.383-50.688 47.217 2.369 90.051 20.018 123.956 47.917 26.874 22.115 48.135 50.67 61.523 83.165a235.012 235.012 0 0 1 39.82-14.578c22.97-6.124 47.286-8.834 72.331-7.577z" style="fill:#29b6f6;fill-rule:nonzero"/><path d="M1235.59 612.484c59.502 2.986 112.167 29.813 149.208 70.768 37.044 40.96 58.466 96.002 55.483 155.412-2.956 58.9-29.17 109.701-69.325 146.017-40.845 36.942-96.104 58.777-155.815 58.675l-505.73-.865a181.41 181.41 0 0 1-8.685-.197c-50.532-2.537-94.956-26.072-126.647-61.587-31.379-35.163-50.305-82.242-50.22-132.305.006-3.536.08-6.72.221-9.535 2.689-53.572 26.842-100.986 63.716-134.334 36.879-33.353 86.43-52.64 139.908-49.956 11.109.557 21.755 1.98 31.886 4.192 1.685.367 3.364.758 5.038 1.172 9.877-40.07 32.095-75.022 62.217-100.83 36.407-31.195 84.352-49.045 135.984-46.454 43.273 2.172 82.527 18.347 113.599 43.914 24.628 20.266 44.113 46.437 56.382 76.215a215.437 215.437 0 0 1 36.493-13.36c21.05-5.612 43.334-8.095 66.288-6.943z" style="fill:#81d4fa;fill-rule:nonzero"/><path class="fil5" d="M1055.48 1446.78v-373.87h-70.854v373.87h-55.89l14.218 21.24 70.296 104.99 7.36 10.99 7.35-10.99 70.3-104.99 14.22-21.24h-21.58zM1227.62 1352.34v-279.43H1174.67v279.43H1132.9l10.62 15.88 52.54 78.47 5.5 8.22 5.5-8.22 52.54-78.47 10.63-15.88h-16.13zM862.316 1352.34v-279.43H809.362v279.43H767.59l10.626 15.88 52.539 78.47 5.499 8.22 5.499-8.22 52.539-78.47 10.627-15.88h-16.126z"/></g></svg>