<svg xmlns="http://www.w3.org/2000/svg" viewBox="0 0 512 512">
    <path
        d="M277.333 21.333h-42.666c0 106.667-213.334 128-213.334 277.334 0 170.666 192 170.666 192 170.666s0 21.334 42.667 21.334 42.667-21.334 42.667-21.334 192 0 192-170.666c0-149.334-213.334-170.667-213.334-277.334z"
        style="fill:#e0d4b7" />
    <path
        d="M213.313 469.333c-7.834-.01-191.98-2.208-191.98-170.666 0-80.948 63.792-125.052 120.063-163.97 45.042-31.155 87.542-60.551 92.729-103.957l21.167 2.52c-6.313 52.959-52.646 85.01-101.709 118.948-57.062 39.459-110.916 76.698-110.916 146.459 0 147.396 163.708 149.323 170.687 149.333z"
        style="fill:#d4c3a2" />
    <path
        d="M277.333 21.333H256v448h42.667s192 0 192-170.666c0-149.334-213.334-170.667-213.334-277.334z"
        style="fill:#c5af83" />
    <path
        d="m344.583 456.167-13.791-16.292C364.604 411.271 384 367.583 384 320c0-50.896-28.938-91.802-59.604-135.115C290.729 137.313 256 88.22 256 21.333h21.333c0 60.104 32.75 106.375 64.417 151.136 32.73 46.26 63.583 89.854 63.583 147.531 0 53.865-22.146 103.5-60.75 136.167z"
        style="fill:#b99e69" />
    <path
        d="m298.73 469.333-.21-42.666c15.313-.073 149.48-4.24 149.48-128 0-58.563-49.375-92.72-101.646-128.875-31.562-21.813-64.208-44.375-86.166-74.104l34.291-25.355c17.771 24.021 47.438 44.521 76.125 64.355 56.292 38.927 120.063 83.052 120.063 163.979 0 167.875-184.104 170.635-191.938 170.666z"
        style="fill:#b99e69" />
    <path
        d="M179.02 465.083c-45.312-31.646-72.353-85.875-72.353-145.083 0-57.677 30.854-101.27 63.52-147.438 31.73-44.854 64.48-91.125 64.48-151.229H256c0 66.886-34.73 115.98-68.333 163.459C156.937 228.198 128 269.104 128 320c0 52.24 23.646 99.938 63.23 127.604z"
        style="fill:#d4c3a2" />
    <path
        d="M256 469.333c64 0 128-64 128-149.333 0-106.667-128-170.667-128-298.667 0 128-128 192-128 298.667 0 85.333 64 149.333 128 149.333z"
        style="fill:#eae2ce" />
    <path
        d="M298.667 319.999c0 85.333-10.667 149.333-42.667 149.333h.02C320.015 469.319 384 405.324 384 320c0-106.667-128-170.665-128-298.665 0 127.996 42.667 191.998 42.667 298.664z"
        style="fill:#d4c3a2" />
    <path
        d="m335.833 403.292-17.125-12.75c10.334-13.854 22.625-37.334 22.625-70.542 0-22.27-8.062-44.469-26.958-74.24C311.687 241.01 256 140.927 256 96h21.333c0 32.719 39.959 111.313 55.354 138.833 14.667 23.084 29.98 51.709 29.98 85.167 0 30.906-9.292 59.708-26.834 83.292z"
        style="fill:#c5af83" />
    <path
        d="M237.792 466.208C235.917 464.344 192 419.396 192 330.667c0-47.344 12.813-88.73 24.104-125.25 9.542-30.854 18.563-59.99 18.563-88.084H256c0 31.313-9.48 61.959-19.52 94.396-11.376 36.781-23.147 74.823-23.147 118.938 0 79.396 39.167 120.083 39.563 120.49z"
        style="fill:#f3eee3" />
    <path
        d="M109.792 423.542C107.917 421.677 64 376.969 64 309.333c0-47.812 21.625-73.448 49-105.916 11.75-13.948 25.063-29.75 38.125-49.334l17.75 11.834c-13.73 20.583-27.458 36.875-39.583 51.25-25.521 30.27-43.959 52.146-43.959 92.166 0 58.896 39.146 98.73 39.542 99.125z"
        style="fill:#eae2ce" />
</svg>