<svg xmlns="http://www.w3.org/2000/svg" viewBox="0 0 48 48">
    <path
        d="M2 21a1 1 0 0 1-.24-2 6.33 6.33 0 0 0 3-1.38A2.86 2.86 0 0 1 3 15.08a2.61 2.61 0 0 1 3.26-2.54 2.78 2.78 0 0 1 1.91 3.73 8.93 8.93 0 0 1-.39.83l1.73 1a1 1 0 0 1-1 1.72l-1.93-1.11A7.49 7.49 0 0 1 3 20.78 4.89 4.89 0 0 1 2 21zm3-5.92c0 .47.41.6 1.06 1 .25-.47.42-.81.22-1.19a.66.66 0 0 0-1.28.19z"
        style="fill:#edb996" />
    <path
        d="M47 24v3c-3.18 2.66-7.93 6.53-12.28 7L34 39h-4c-.49-3.4-.54-4-.8-5H14.93a25.65 25.65 0 0 0-.93 5h-4a54.74 54.74 0 0 0-2.51-11.54 9.47 9.47 0 0 1 9-12.46h12.76c.94-3.71 3.55-4.91 5.75-6v6a7.33 7.33 0 0 1 6.53 4.07L43 22z"
        style="fill:#f6ccaf" />
    <path
        d="M47 24v3c-3.18 2.66-7.93 6.53-12.28 7l-.43 3a3 3 0 0 1-3-2.49c0-.22-.07-.41-.1-.51h-2a15.84 15.84 0 0 0-2.37-5.55 1 1 0 0 0-1.66 1.1 15.27 15.27 0 0 1 2 4.45H17a11.62 11.62 0 0 1 2.72-4.29 1 1 0 0 0-1.42-1.42 14 14 0 0 0-4 8.71 3.12 3.12 0 0 1-2-.7c-1.63-1.3-1-3.25-2.75-8.62A9.55 9.55 0 0 1 18.79 15h12.46A8.09 8.09 0 0 1 35 10v5a7.33 7.33 0 0 1 6.53 4.07L43 22z"
        style="fill:#ffdec7" />
</svg>