<svg version="1.1" id="Icon_Set" xmlns="http://www.w3.org/2000/svg" x="0" y="0" viewBox="0 0 256 256" style="enable-background:new 0 0 256 256" xml:space="preserve"><style>.st0{fill:#4c4372}.st4{fill:#7bacf1}</style><circle cx="128" cy="128" r="104.245" style="fill:#f1c48b"/><path d="M186.218 190.555H69.782c-6.733 0-12.191-5.458-12.191-12.191V80.762c0-6.733 5.458-12.191 12.191-12.191h116.437c6.733 0 12.191 5.458 12.191 12.191v97.601c0 6.733-5.458 12.192-12.192 12.192z" style="fill:#fff"/><path d="M186.218 68.571h-17c6.733 0 12.191 5.458 12.191 12.191v97.601c0 6.733-5.458 12.191-12.191 12.191h17c6.733 0 12.191-5.458 12.191-12.191V80.762c.001-6.733-5.457-12.191-12.191-12.191z" style="fill:#d4e7f8"/><path d="M186.218 68.571H69.782c-6.733 0-12.191 5.458-12.191 12.191v18.6h140.82v-18.6c-.001-6.733-5.459-12.191-12.193-12.191z" style="fill:#fd919e"/><path d="M186.218 68.571h-17c6.733 0 12.191 5.458 12.191 12.191v18.6h17v-18.6c.001-6.733-5.457-12.191-12.191-12.191z" style="fill:#e8677d"/><path class="st0" d="M198.41 102.362H57.59a3 3 0 0 1-3-3v-18.6c0-8.376 6.815-15.191 15.191-15.191h116.437c8.377 0 15.191 6.815 15.191 15.191v18.6a2.998 2.998 0 0 1-2.999 3zm-137.82-6h134.82v-15.6c0-5.068-4.123-9.191-9.191-9.191H69.782c-5.068 0-9.191 4.123-9.191 9.191v15.6z"/><path class="st0" d="M186.219 193.555H69.782c-8.376 0-15.191-6.815-15.191-15.191V80.762c0-8.376 6.815-15.191 15.191-15.191h116.437c8.377 0 15.191 6.815 15.191 15.191v97.601c0 8.377-6.814 15.192-15.191 15.192zM69.782 71.571c-5.068 0-9.191 4.123-9.191 9.191v97.601c0 5.068 4.123 9.191 9.191 9.191h116.437c5.068 0 9.191-4.123 9.191-9.191V80.762c0-5.068-4.123-9.191-9.191-9.191H69.782z"/><path class="st4" d="M92.47 83.696a6.278 6.278 0 0 1-6.278-6.278V59.724a6.278 6.278 0 0 1 12.556 0v17.694a6.278 6.278 0 0 1-6.278 6.278zM163.53 83.696a6.278 6.278 0 0 1-6.278-6.278V59.724a6.278 6.278 0 0 1 12.556 0v17.694a6.277 6.277 0 0 1-6.278 6.278z"/><path class="st0" d="M92.47 86.696c-5.116 0-9.278-4.162-9.278-9.278V59.724c0-5.116 4.162-9.278 9.278-9.278s9.278 4.162 9.278 9.278v17.694c0 5.116-4.162 9.278-9.278 9.278zm0-30.251a3.282 3.282 0 0 0-3.278 3.278v17.694c0 1.808 1.471 3.278 3.278 3.278s3.278-1.471 3.278-3.278V59.724a3.283 3.283 0 0 0-3.278-3.279zM163.53 86.696c-5.116 0-9.278-4.162-9.278-9.278V59.724c0-5.116 4.162-9.278 9.278-9.278s9.278 4.162 9.278 9.278v17.694c.001 5.116-4.162 9.278-9.278 9.278zm0-30.251a3.282 3.282 0 0 0-3.278 3.278v17.694c0 1.808 1.471 3.278 3.278 3.278s3.278-1.471 3.278-3.278V59.724a3.281 3.281 0 0 0-3.278-3.279zM126.175 138.078c3.139 3.074 4.675 7.172 4.675 11.207s-1.536 8.133-4.675 11.271a15.958 15.958 0 0 1-11.271 4.675c-4.035 0-8.133-1.601-11.207-4.675a3.633 3.633 0 0 1 0-5.123 3.633 3.633 0 0 1 5.123 0c1.665 1.665 3.842 2.498 6.084 2.498 2.241 0 4.419-.833 6.148-2.498 1.729-1.729 2.562-3.907 2.562-6.148 0-2.242-.833-4.419-2.562-6.084-1.665-1.729-3.843-2.498-6.084-2.562a3.16 3.16 0 0 1-2.625-1.153c-.064 0-.064 0-.064-.064-1.473-1.409-1.473-3.65-.128-5.124l6.532-6.66h-10.375c-1.985 0-3.586-1.601-3.586-3.65a3.58 3.58 0 0 1 3.586-3.586H127.2c2.049 0 3.65 1.601 3.65 3.586 0 .641-.191 1.217-.448 1.729-.191.32-.384.641-.64.897l-8.07 8.325c1.665.769 3.202 1.793 4.483 3.139zM154.288 123.988v37.784c0 1.985-1.665 3.522-3.587 3.522-1.984 0-3.521-1.537-3.521-3.522v-31.508l-2.562 1.473c-.577.384-1.217.512-1.794.512-1.217 0-2.369-.64-3.01-1.793-1.089-1.601-.512-3.842 1.153-4.803l7.877-4.675c.063-.064.191-.064.256-.128.128 0 .192-.128.32-.192.128 0 .256-.064.384-.064.064-.064.192-.064.257-.064.128-.064.32-.064.448-.064H151.212c.064.064.192.064.256.064.192 0 .257.064.385.128.063 0 .192 0 .256.064.192.128.256.192.385.192a.87.87 0 0 0 .256.192c.064.064.192.128.256.192.128.064.192.192.257.256.063.064.128.128.191.256l.257.256.063.128c0 .064.064.128.064.192.063.128.128.192.128.32.064.128.064.256.128.32 0 .128.064.256.064.32 0 .192 0 .32.128.448.002.066.002.13.002.194z"/></svg>