<svg xmlns="http://www.w3.org/2000/svg" xml:space="preserve" width="2048" height="2048" style="shape-rendering:geometricPrecision;text-rendering:geometricPrecision;image-rendering:optimizeQuality;fill-rule:evenodd;clip-rule:evenodd"><defs><style>.fil2,.fil3,.fil6{fill:#e8c735}.fil2,.fil3{fill-rule:nonzero}.fil2{fill:#fdd835}</style></defs><g id="Layer_x0020_1"><g id="_366653624"><path id="_366654800" d="M557.534 1069.18c0 18.145 14.71 32.857 32.856 32.857 18.145 0 32.857-14.712 32.857-32.857V576.345h394.266v1018.52c0 18.145 14.71 32.857 32.856 32.857h406.595c18.145 0 32.856-14.712 32.856-32.857V994.483c0-18.145-14.71-32.856-32.856-32.856-18.145 0-32.857 14.71-32.857 32.856v567.526h-340.881V543.489c0-18.145-14.71-32.857-32.857-32.857h-459.98c-18.145 0-32.855 14.712-32.855 32.857v525.691z" style="fill:#26a69a;fill-rule:nonzero"/><path id="_366654344" d="M1458.67 443.051c103.488 0 187.38 83.893 187.38 187.38 0 69.357-37.683 129.906-93.69 162.305V994.48h-187.38V792.736c-56.006-32.399-93.69-92.95-93.69-162.305 0-103.487 83.893-187.38 187.38-187.38z" style="fill:#fdd835"/><path id="_366654848" class="fil2" d="M1483.32 280.641c0-13.609-11.034-24.641-24.642-24.641-13.61 0-24.642 11.032-24.642 24.641v74.941c0 13.609 11.033 24.641 24.641 24.641 13.61 0 24.643-11.032 24.643-24.641v-74.941z"/><path id="_366654704" class="fil3" d="M1654.83 339.821c6.804-11.748 2.796-26.789-8.953-33.593-11.748-6.804-26.79-2.797-33.594 8.952l-37.47 64.9c-6.805 11.748-2.796 26.79 8.952 33.594 11.749 6.805 26.789 2.796 33.593-8.953l37.472-64.9z"/><path id="_366655016" class="fil3" d="M1773.9 476.795c11.748-6.804 15.756-21.845 8.952-33.593-6.805-11.748-21.845-15.757-33.593-8.953l-64.9 37.472c-11.75 6.804-15.758 21.845-8.953 33.593 6.804 11.748 21.845 15.757 33.594 8.953l64.9-37.472z"/><path id="_366654248" class="fil2" d="M1168.09 434.249c-11.748-6.804-26.79-2.796-33.594 8.953-6.804 11.748-2.796 26.788 8.953 33.593l64.9 37.471c11.748 6.805 26.79 2.796 33.594-8.952 6.804-11.749 2.796-26.789-8.953-33.593l-64.9-37.472z"/><path id="_366653840" class="fil2" d="M1305.06 315.18c-6.804-11.748-21.845-15.756-33.593-8.952-11.748 6.805-15.757 21.845-8.953 33.593l37.47 64.9c6.805 11.75 21.847 15.758 33.595 8.953 11.748-6.804 15.757-21.845 8.953-33.594l-37.472-64.9z"/><path id="_366654224" style="fill:#ef5350" d="M688.956 1299.16h.003L918.947 1792H261.834l229.987-492.84V937.752h197.135z"/><path id="_366654272" d="M462.411 904.899c-18.145 0-32.856 14.71-32.856 32.856 0 18.145 14.71 32.857 32.856 32.857h255.958c18.145 0 32.856-14.712 32.856-32.857s-14.71-32.856-32.856-32.856H462.411z" style="fill:#d32f2f;fill-rule:nonzero"/><path id="_366653768" class="fil6" d="M1458.67 255.999v124.224c13.609 0 24.642-11.033 24.642-24.641V280.64c0-13.61-11.033-24.642-24.642-24.642z"/><path id="_366653960" class="fil6" d="M1458.67 443.051V994.48l31.147.001 62.543-.001V792.736c56.007-32.399 93.69-92.948 93.69-162.305 0-103.487-83.892-187.38-187.38-187.38z"/><path id="_366653912" d="M623.247 970.612H718.37c18.145 0 32.855-14.712 32.855-32.857s-14.71-32.856-32.855-32.856H590.39v65.714h32.856z" style="fill:#c22f30"/><path id="_366653672" d="M688.959 1299.16zm-98.568-328.549-.001 131.421.001 689.967h328.556l-229.99-492.84V970.61h-98.565z" style="fill:#db504e"/></g></g><path style="fill:none" d="M0 0h2048v2048H0z"/></svg>